OSP-DIN.ufo
<glyph name="exclam" format="1">
  <advance width="434"/>
  <unicode hex="0021"/>
  <outline>
    <contour>
      <point x="115" y="1434" type="line" smooth="no"/>
      <point x="319" y="1434" type="line" smooth="no"/>
      <point x="319" y="1024" type="line" smooth="no"/>
      <point x="268" y="307" type="line" smooth="no"/>
      <point x="166" y="307" type="line" smooth="no"/>
      <point x="115" y="1024" type="line" smooth="no"/>
    </contour>
    <contour>
      <point x="115" y="205" type="line" smooth="no"/>
      <point x="319" y="205" type="line" smooth="no"/>
      <point x="319" y="0" type="line" smooth="no"/>
      <point x="115" y="0" type="line" smooth="no"/>
    </contour>
  </outline>
</glyph>
<glyph name="percent" format="1">
  <advance width="856"/>
  <unicode hex="0025"/>
  <outline>
    <contour>
      <point x="578" y="1434" type="line" smooth="no"/>
      <point x="738" y="1434" type="line" smooth="no"/>
      <point x="268" y="-203" type="line" smooth="no"/>
      <point x="106" y="-203" type="line" smooth="no"/>
    </contour>
    <contour>
      <point x="240" y="1394" type="curve" smooth="yes"/>
      <point x="282.667" y="1394"/>
      <point x="319" y="1379.33"/>
      <point x="349" y="1350" type="curve" smooth="yes"/>
      <point x="379" y="1320.67"/>
      <point x="394.333" y="1284.67"/>
      <point x="395" y="1242" type="curve" smooth="no"/>
      <point x="395" y="1096" type="line" smooth="yes"/>
      <point x="395" y="1052.67"/>
      <point x="379.833" y="1016"/>
      <point x="349.5" y="986" type="curve" smooth="yes"/>
      <point x="319.167" y="956"/>
      <point x="282.667" y="941"/>
      <point x="240" y="941" type="curve" smooth="yes"/>
      <point x="198" y="941"/>
      <point x="162.167" y="955.667"/>
      <point x="132.5" y="985" type="curve" smooth="yes"/>
      <point x="102.833" y="1014.33"/>
      <point x="87.3333" y="1050"/>
      <point x="86" y="1092" type="curve" smooth="no"/>
      <point x="86" y="1096" type="line" smooth="no"/>
      <point x="86" y="1240" type="line" smooth="yes"/>
      <point x="86" y="1282.67"/>
      <point x="101" y="1319"/>
      <point x="131" y="1349" type="curve" smooth="yes"/>
      <point x="161" y="1379"/>
      <point x="197.333" y="1394"/>
    </contour>
    <contour>
      <point x="240.5" y="1290" type="curve" smooth="yes"/>
      <point x="226.166" y="1289.98"/>
      <point x="214" y="1285.15"/>
      <point x="204" y="1275.5" type="curve" smooth="yes"/>
      <point x="194" y="1265.83"/>
      <point x="189" y="1253.99"/>
      <point x="189" y="1240" type="curve" smooth="yes"/>
      <point x="189" y="1096" type="line" smooth="yes"/>
      <point x="189" y="1081.33"/>
      <point x="194" y="1069"/>
      <point x="204" y="1059" type="curve" smooth="yes"/>
      <point x="214" y="1049"/>
      <point x="226" y="1044"/>
      <point x="240" y="1044" type="curve" smooth="yes"/>
      <point x="254" y="1044"/>
      <point x="266.167" y="1048.83"/>
      <point x="276.5" y="1058.5" type="curve" smooth="yes"/>
      <point x="286.835" y="1068.17"/>
      <point x="292.002" y="1080"/>
      <point x="292" y="1094" type="curve" smooth="yes"/>
      <point x="292" y="1240" type="line" smooth="yes"/>
      <point x="292" y="1254"/>
      <point x="287" y="1265.83"/>
      <point x="277" y="1275.5" type="curve" smooth="yes"/>
      <point x="267" y="1285.17"/>
      <point x="254.833" y="1290"/>
    </contour>
    <contour>
      <point x="616" y="271" type="curve" smooth="yes"/>
      <point x="658" y="271"/>
      <point x="694" y="256.333"/>
      <point x="724" y="227" type="curve" smooth="yes"/>
      <point x="754.001" y="197.667"/>
      <point x="769.335" y="162"/>
      <point x="770" y="120" type="curve" smooth="no"/>
      <point x="770" y="-28" type="line" smooth="yes"/>
      <point x="769.998" y="-70.6667"/>
      <point x="754.832" y="-107"/>
      <point x="724.5" y="-137" type="curve" smooth="yes"/>
      <point x="694.167" y="-167"/>
      <point x="658" y="-182"/>
      <point x="616" y="-182" type="curve" smooth="yes"/>
      <point x="573.333" y="-182"/>
      <point x="537.167" y="-167.333"/>
      <point x="507.5" y="-138" type="curve" smooth="yes"/>
      <point x="477.833" y="-108.667"/>
      <point x="462.333" y="-73.3334"/>
      <point x="461" y="-32" type="curve" smooth="no"/>
      <point x="461" y="-28" type="line" smooth="no"/>
      <point x="461" y="116" type="line" smooth="yes"/>
      <point x="461" y="159.333"/>
      <point x="476" y="196"/>
      <point x="506" y="226" type="curve" smooth="yes"/>
      <point x="536" y="256"/>
      <point x="572.667" y="271"/>
    </contour>
    <contour>
      <point x="615.5" y="168" type="curve" smooth="yes"/>
      <point x="601.166" y="168"/>
      <point x="588.999" y="163"/>
      <point x="579" y="153" type="curve" smooth="yes"/>
      <point x="569" y="143"/>
      <point x="564" y="131.333"/>
      <point x="564" y="118" type="curve" smooth="yes"/>
      <point x="564" y="-28" type="line" smooth="yes"/>
      <point x="564" y="-42"/>
      <point x="569" y="-53.8333"/>
      <point x="579" y="-63.5" type="curve" smooth="yes"/>
      <point x="589.001" y="-73.1666"/>
      <point x="601.335" y="-78"/>
      <point x="616" y="-78" type="curve" smooth="yes"/>
      <point x="629.333" y="-78"/>
      <point x="641" y="-73.3334"/>
      <point x="651" y="-64" type="curve" smooth="yes"/>
      <point x="661" y="-54.6667"/>
      <point x="666" y="-43.3333"/>
      <point x="666" y="-30" type="curve" smooth="yes"/>
      <point x="666" y="116" type="line" smooth="yes"/>
      <point x="666" y="130.667"/>
      <point x="661.167" y="143"/>
      <point x="651.5" y="153" type="curve" smooth="yes"/>
      <point x="641.833" y="163"/>
      <point x="629.833" y="168"/>
    </contour>
  </outline>
</glyph>
<glyph name="quotesingle" format="1">
  <advance width="380"/>
  <unicode hex="0027"/>
  <outline>
    <contour>
      <point x="109" y="1434" type="line" smooth="no"/>
      <point x="272" y="1434" type="line" smooth="no"/>
      <point x="272" y="1106" type="line" smooth="no"/>
      <point x="109" y="1106" type="line" smooth="no"/>
    </contour>
  </outline>
</glyph>
<glyph name="parenleft" format="1">
  <advance width="448"/>
  <unicode hex="0028"/>
  <outline>
    <contour>
      <point x="244" y="1434" type="line" smooth="no"/>
      <point x="346" y="1434" type="line" smooth="no"/>
      <point x="345.997" y="1431.33"/>
      <point x="342.664" y="1411.83"/>
      <point x="336" y="1375.5" type="curve" smooth="yes"/>
      <point x="329.333" y="1339.17"/>
      <point x="320.833" y="1292.67"/>
      <point x="310.5" y="1236" type="curve" smooth="yes"/>
      <point x="300.167" y="1179.33"/>
      <point x="289.833" y="1117.17"/>
      <point x="279.5" y="1049.5" type="curve" smooth="yes"/>
      <point x="269.167" y="981.833"/>
      <point x="260.667" y="908.833"/>
      <point x="254" y="830.5" type="curve" smooth="yes"/>
      <point x="247.333" y="752.166"/>
      <point x="244" y="680"/>
      <point x="244" y="614" type="curve" smooth="yes"/>
      <point x="244" y="512.667"/>
      <point x="252.5" y="393.833"/>
      <point x="269.5" y="257.5" type="curve" smooth="yes"/>
      <point x="286.5" y="121.167"/>
      <point x="302.5" y="14.1667"/>
      <point x="317.5" y="-63.5" type="curve" smooth="yes"/>
      <point x="332.5" y="-141.167"/>
      <point x="342" y="-188.333"/>
      <point x="346" y="-205" type="curve" smooth="no"/>
      <point x="244" y="-205" type="line" smooth="no"/>
      <point x="107.333" y="68.3333"/>
      <point x="39" y="341.333"/>
      <point x="39" y="614" type="curve" smooth="yes"/>
      <point x="39" y="714"/>
      <point x="47.8333" y="813.5"/>
      <point x="65.5" y="912.5" type="curve" smooth="yes"/>
      <point x="83.1667" y="1011.5"/>
      <point x="106" y="1098.83"/>
      <point x="134" y="1174.5" type="curve" smooth="yes"/>
      <point x="162" y="1250.17"/>
      <point x="183.5" y="1305.17"/>
      <point x="198.5" y="1339.5" type="curve" smooth="yes"/>
      <point x="213.5" y="1373.84"/>
      <point x="228" y="1404"/>
      <point x="242" y="1430" type="curve" smooth="no"/>
    </contour>
  </outline>
</glyph>
<glyph name="plus" format="1">
  <advance width="1013"/>
  <unicode hex="002b"/>
  <outline>
    <contour>
      <point x="918" y="617" type="line" smooth="no"/>
      <point x="918" y="411" type="line" smooth="no"/>
      <point x="610" y="411" type="line" smooth="no"/>
      <point x="610" y="103" type="line" smooth="no"/>
      <point x="404" y="103" type="line" smooth="no"/>
      <point x="404" y="411" type="line" smooth="no"/>
      <point x="96" y="411" type="line" smooth="no"/>
      <point x="96" y="617" type="line" smooth="no"/>
      <point x="404" y="617" type="line" smooth="no"/>
      <point x="404" y="924" type="line" smooth="no"/>
      <point x="610" y="924" type="line" smooth="no"/>
      <point x="610" y="617" type="line" smooth="no"/>
    </contour>
  </outline>
</glyph>
<glyph name="comma" format="1">
  <advance width="376"/>
  <unicode hex="002c"/>
  <outline>
    <contour>
      <point x="89" y="234" type="line" smooth="no"/>
      <point x="294" y="234" type="line" smooth="no"/>
      <point x="291" y="0" type="line" smooth="no"/>
      <point x="86" y="-205" type="line" smooth="no"/>
    </contour>
  </outline>
</glyph>
<glyph name="hyphen" format="1">
  <advance width="671"/>
  <unicode hex="002d"/>
  <outline>
    <contour>
      <point x="90" y="729" type="line" smooth="no"/>
      <point x="582" y="729" type="line" smooth="no"/>
      <point x="582" y="565" type="line" smooth="no"/>
      <point x="90" y="565" type="line" smooth="no"/>
    </contour>
  </outline>
</glyph>
<glyph name="zero" format="1">
  <advance width="753"/>
  <unicode hex="0030"/>
  <outline>
    <contour>
      <point x="377" y="1434" type="curve" smooth="yes"/>
      <point x="461.667" y="1434"/>
      <point x="534" y="1403.83"/>
      <point x="594" y="1343.5" type="curve" smooth="yes"/>
      <point x="654" y="1283.17"/>
      <point x="684" y="1210.67"/>
      <point x="684" y="1126" type="curve" smooth="yes"/>
      <point x="684" y="307" type="line" smooth="yes"/>
      <point x="684" y="222.333"/>
      <point x="654" y="150"/>
      <point x="594" y="90" type="curve" smooth="yes"/>
      <point x="534" y="30"/>
      <point x="461.667" y="0"/>
      <point x="377" y="0" type="curve" smooth="yes"/>
      <point x="292.333" y="0"/>
      <point x="220" y="30"/>
      <point x="160" y="90" type="curve" smooth="yes"/>
      <point x="100" y="150"/>
      <point x="70" y="222.333"/>
      <point x="70" y="307" type="curve" smooth="yes"/>
      <point x="70" y="1126" type="line" smooth="yes"/>
      <point x="70" y="1210.67"/>
      <point x="100" y="1283.17"/>
      <point x="160" y="1343.5" type="curve" smooth="yes"/>
      <point x="220" y="1403.84"/>
      <point x="292.333" y="1434"/>
    </contour>
    <contour>
      <point x="377" y="1229" type="curve" smooth="yes"/>
      <point x="348.333" y="1229"/>
      <point x="324" y="1219"/>
      <point x="304" y="1199" type="curve" smooth="yes"/>
      <point x="284" y="1179"/>
      <point x="274" y="1154.67"/>
      <point x="274" y="1126" type="curve" smooth="yes"/>
      <point x="274" y="307" type="line" smooth="yes"/>
      <point x="274" y="278.333"/>
      <point x="284" y="254.167"/>
      <point x="304" y="234.5" type="curve" smooth="yes"/>
      <point x="324" y="214.833"/>
      <point x="348.333" y="205"/>
      <point x="377" y="205" type="curve" smooth="yes"/>
      <point x="405.667" y="205"/>
      <point x="429.833" y="214.833"/>
      <point x="449.5" y="234.5" type="curve" smooth="yes"/>
      <point x="469.167" y="254.167"/>
      <point x="479" y="278.333"/>
      <point x="479" y="307" type="curve" smooth="yes"/>
      <point x="479" y="1126" type="line" smooth="yes"/>
      <point x="478.999" y="1154.67"/>
      <point x="469.166" y="1179"/>
      <point x="449.5" y="1199" type="curve" smooth="yes"/>
      <point x="429.833" y="1219"/>
      <point x="405.666" y="1229"/>
    </contour>
  </outline>
</glyph>
<glyph name="one" format="1">
  <advance width="753"/>
  <unicode hex="0031"/>
  <outline>
    <contour>
      <point x="313" y="1434" type="line" smooth="no"/>
      <point x="518" y="1434" type="line" smooth="no"/>
      <point x="518" y="0" type="line" smooth="no"/>
      <point x="313" y="0" type="line" smooth="no"/>
      <point x="313" y="1229" type="line" smooth="no"/>
      <point x="109" y="1024" type="line" smooth="no"/>
      <point x="109" y="1229" type="line" smooth="no"/>
    </contour>
  </outline>
</glyph>
<glyph name="two" format="1">
  <advance width="753"/>
  <unicode hex="0032"/>
  <outline>
    <contour>
      <point x="377" y="1434" type="curve" smooth="yes"/>
      <point x="461.667" y="1434"/>
      <point x="534" y="1403.83"/>
      <point x="594" y="1343.5" type="curve" smooth="yes"/>
      <point x="654" y="1283.17"/>
      <point x="684" y="1210.67"/>
      <point x="684" y="1126" type="curve" smooth="yes"/>
      <point x="684" y="1080.67"/>
      <point x="675" y="1038.33"/>
      <point x="657" y="999" type="curve" smooth="yes"/>
      <point x="299" y="205" type="line" smooth="no"/>
      <point x="684" y="205" type="line" smooth="no"/>
      <point x="684" y="0" type="line" smooth="no"/>
      <point x="70" y="0" type="line" smooth="no"/>
      <point x="70" y="205" type="line" smooth="no"/>
      <point x="455" y="1047" type="line" smooth="no"/>
      <point x="471.667" y="1086.33"/>
      <point x="479.667" y="1112.67"/>
      <point x="479" y="1126" type="curve" smooth="no"/>
      <point x="478.999" y="1154.67"/>
      <point x="469.166" y="1179"/>
      <point x="449.5" y="1199" type="curve" smooth="yes"/>
      <point x="429.833" y="1219"/>
      <point x="405.666" y="1229"/>
      <point x="377" y="1229" type="curve" smooth="yes"/>
      <point x="348.333" y="1229"/>
      <point x="324" y="1219"/>
      <point x="304" y="1199" type="curve" smooth="yes"/>
      <point x="284" y="1179"/>
      <point x="274" y="1154.67"/>
      <point x="274" y="1126" type="curve" smooth="no"/>
      <point x="70" y="1126" type="line" smooth="no"/>
      <point x="70" y="1210.67"/>
      <point x="100" y="1283.17"/>
      <point x="160" y="1343.5" type="curve" smooth="yes"/>
      <point x="220" y="1403.84"/>
      <point x="292.333" y="1434"/>
    </contour>
  </outline>
</glyph>
<glyph name="three" format="1">
  <advance width="753"/>
  <unicode hex="0033"/>
  <outline>
    <contour>
      <point x="377" y="1434" type="curve" smooth="yes"/>
      <point x="461.667" y="1434"/>
      <point x="534" y="1403.83"/>
      <point x="594" y="1343.5" type="curve" smooth="yes"/>
      <point x="654" y="1283.17"/>
      <point x="684" y="1210.67"/>
      <point x="684" y="1126" type="curve" smooth="yes"/>
      <point x="684" y="922" type="line" smooth="yes"/>
      <point x="684" y="844"/>
      <point x="658" y="775.667"/>
      <point x="606" y="717" type="curve" smooth="no"/>
      <point x="658" y="658.333"/>
      <point x="684" y="590"/>
      <point x="684" y="512" type="curve" smooth="yes"/>
      <point x="684" y="307" type="line" smooth="yes"/>
      <point x="684" y="222.333"/>
      <point x="654" y="150"/>
      <point x="594" y="90" type="curve" smooth="yes"/>
      <point x="534" y="30"/>
      <point x="461.667" y="0"/>
      <point x="377" y="0" type="curve" smooth="yes"/>
      <point x="292.333" y="0"/>
      <point x="220" y="30"/>
      <point x="160" y="90" type="curve" smooth="yes"/>
      <point x="100" y="150"/>
      <point x="70" y="222.333"/>
      <point x="70" y="307" type="curve" smooth="yes"/>
      <point x="70" y="410" type="line" smooth="no"/>
      <point x="274" y="410" type="line" smooth="no"/>
      <point x="274" y="307" type="line" smooth="yes"/>
      <point x="274" y="278.333"/>
      <point x="284" y="254.167"/>
      <point x="304" y="234.5" type="curve" smooth="yes"/>
      <point x="324" y="214.833"/>
      <point x="348.333" y="205"/>
      <point x="377" y="205" type="curve" smooth="yes"/>
      <point x="405.667" y="205"/>
      <point x="429.833" y="214.833"/>
      <point x="449.5" y="234.5" type="curve" smooth="yes"/>
      <point x="469.167" y="254.167"/>
      <point x="479" y="278.333"/>
      <point x="479" y="307" type="curve" smooth="yes"/>
      <point x="479" y="512" type="line" smooth="yes"/>
      <point x="478.999" y="540.668"/>
      <point x="469.166" y="564.835"/>
      <point x="449.5" y="584.5" type="curve" smooth="yes"/>
      <point x="429.833" y="604.17"/>
      <point x="405.666" y="614.003"/>
      <point x="377" y="614" type="curve" smooth="no"/>
      <point x="377" y="819" type="line" smooth="no"/>
      <point x="405.667" y="819"/>
      <point x="429.833" y="829"/>
      <point x="449.5" y="849" type="curve" smooth="yes"/>
      <point x="469.167" y="869.001"/>
      <point x="479" y="893.334"/>
      <point x="479" y="922" type="curve" smooth="yes"/>
      <point x="479" y="1126" type="line" smooth="yes"/>
      <point x="478.999" y="1154.67"/>
      <point x="469.166" y="1179"/>
      <point x="449.5" y="1199" type="curve" smooth="yes"/>
      <point x="429.833" y="1219"/>
      <point x="405.666" y="1229"/>
      <point x="377" y="1229" type="curve" smooth="yes"/>
      <point x="348.333" y="1229"/>
      <point x="324" y="1219"/>
      <point x="304" y="1199" type="curve" smooth="yes"/>
      <point x="284" y="1179"/>
      <point x="274" y="1154.67"/>
      <point x="274" y="1126" type="curve" smooth="yes"/>
      <point x="274" y="1024" type="line" smooth="no"/>
      <point x="70" y="1024" type="line" smooth="no"/>
      <point x="70" y="1126" type="line" smooth="yes"/>
      <point x="70" y="1210.67"/>
      <point x="100" y="1283.17"/>
      <point x="160" y="1343.5" type="curve" smooth="yes"/>
      <point x="220" y="1403.84"/>
      <point x="292.333" y="1434"/>
    </contour>
  </outline>
</glyph>
<glyph name="four" format="1">
  <advance width="651"/>
  <unicode hex="0034"/>
  <outline>
    <contour>
      <point x="223" y="1434" type="line" smooth="no"/>
      <point x="428" y="1434" type="line" smooth="no"/>
      <point x="223" y="410" type="line" smooth="no"/>
      <point x="377" y="410" type="line" smooth="no"/>
      <point x="377" y="717" type="line" smooth="no"/>
      <point x="582" y="717" type="line" smooth="no"/>
      <point x="582" y="410" type="line" smooth="no"/>
      <point x="633" y="410" type="line" smooth="no"/>
      <point x="633" y="205" type="line" smooth="no"/>
      <point x="582" y="205" type="line" smooth="no"/>
      <point x="582" y="0" type="line" smooth="no"/>
      <point x="377" y="0" type="line" smooth="no"/>
      <point x="377" y="205" type="line" smooth="no"/>
      <point x="18" y="205" type="line" smooth="no"/>
      <point x="18" y="410" type="line" smooth="no"/>
    </contour>
  </outline>
</glyph>
<glyph name="five" format="1">
  <advance width="753"/>
  <unicode hex="0035"/>
  <outline>
    <contour>
      <point x="70" y="1434" type="line" smooth="no"/>
      <point x="582" y="1434" type="line" smooth="no"/>
      <point x="582" y="1229" type="line" smooth="no"/>
      <point x="274" y="1229" type="line" smooth="no"/>
      <point x="274" y="903" type="line" smooth="no"/>
      <point x="306.667" y="915.005"/>
      <point x="341" y="921.338"/>
      <point x="377" y="922" type="curve" smooth="no"/>
      <point x="461.667" y="921.999"/>
      <point x="534" y="891.832"/>
      <point x="594" y="831.5" type="curve" smooth="yes"/>
      <point x="654" y="771.167"/>
      <point x="684" y="698.667"/>
      <point x="684" y="614" type="curve" smooth="yes"/>
      <point x="684" y="307" type="line" smooth="yes"/>
      <point x="684" y="222.333"/>
      <point x="654" y="150"/>
      <point x="594" y="90" type="curve" smooth="yes"/>
      <point x="534" y="30"/>
      <point x="461.667" y="0"/>
      <point x="377" y="0" type="curve" smooth="yes"/>
      <point x="292.333" y="0"/>
      <point x="220" y="30"/>
      <point x="160" y="90" type="curve" smooth="yes"/>
      <point x="100" y="150"/>
      <point x="70" y="222.333"/>
      <point x="70" y="307" type="curve" smooth="yes"/>
      <point x="70" y="410" type="line" smooth="no"/>
      <point x="274" y="410" type="line" smooth="no"/>
      <point x="274" y="307" type="line" smooth="yes"/>
      <point x="274" y="278.333"/>
      <point x="284" y="254.167"/>
      <point x="304" y="234.5" type="curve" smooth="yes"/>
      <point x="324" y="214.833"/>
      <point x="348.333" y="205"/>
      <point x="377" y="205" type="curve" smooth="yes"/>
      <point x="405.667" y="205"/>
      <point x="429.833" y="214.833"/>
      <point x="449.5" y="234.5" type="curve" smooth="yes"/>
      <point x="469.167" y="254.167"/>
      <point x="479" y="278.333"/>
      <point x="479" y="307" type="curve" smooth="yes"/>
      <point x="479" y="614" type="line" smooth="yes"/>
      <point x="478.999" y="642.666"/>
      <point x="469.166" y="667"/>
      <point x="449.5" y="687" type="curve" smooth="yes"/>
      <point x="429.833" y="707"/>
      <point x="405.666" y="717"/>
      <point x="377" y="717" type="curve" smooth="yes"/>
      <point x="348.333" y="717"/>
      <point x="324" y="707"/>
      <point x="304" y="687" type="curve" smooth="yes"/>
      <point x="284" y="667"/>
      <point x="274" y="642.667"/>
      <point x="274" y="614" type="curve" smooth="no"/>
      <point x="70" y="614" type="line" smooth="no"/>
      <point x="70" y="1229" type="line" smooth="no"/>
    </contour>
  </outline>
</glyph>
<glyph name="seven" format="1">
  <advance width="751"/>
  <unicode hex="0037"/>
  <outline>
    <contour>
      <point x="70" y="1128" type="line" smooth="no"/>
      <point x="70" y="1434" type="line" smooth="no"/>
      <point x="682" y="1434" type="line" smooth="no"/>
      <point x="682" y="1231" type="line" smooth="no"/>
      <point x="272" y="2" type="line" smooth="no"/>
      <point x="70" y="2" type="line" smooth="no"/>
      <point x="479" y="1231" type="line" smooth="no"/>
      <point x="272" y="1231" type="line" smooth="no"/>
      <point x="272" y="1128" type="line" smooth="no"/>
    </contour>
  </outline>
</glyph>
<glyph name="eight" format="1">
  <advance width="753"/>
  <unicode hex="0038"/>
  <outline>
    <contour>
      <point x="377" y="1434" type="curve" smooth="yes"/>
      <point x="461.667" y="1434"/>
      <point x="534" y="1403.83"/>
      <point x="594" y="1343.5" type="curve" smooth="yes"/>
      <point x="654" y="1283.17"/>
      <point x="684" y="1210.67"/>
      <point x="684" y="1126" type="curve" smooth="yes"/>
      <point x="684" y="999" type="line" smooth="yes"/>
      <point x="684" y="919.667"/>
      <point x="658" y="851.667"/>
      <point x="606" y="795" type="curve" smooth="no"/>
      <point x="658" y="736.333"/>
      <point x="684" y="668"/>
      <point x="684" y="590" type="curve" smooth="yes"/>
      <point x="684" y="307" type="line" smooth="yes"/>
      <point x="684" y="222.333"/>
      <point x="654" y="150"/>
      <point x="594" y="90" type="curve" smooth="yes"/>
      <point x="534" y="30"/>
      <point x="461.667" y="0"/>
      <point x="377" y="0" type="curve" smooth="yes"/>
      <point x="292.333" y="0"/>
      <point x="220" y="30"/>
      <point x="160" y="90" type="curve" smooth="yes"/>
      <point x="100" y="150"/>
      <point x="70" y="222.333"/>
      <point x="70" y="307" type="curve" smooth="yes"/>
      <point x="70" y="590" type="line" smooth="yes"/>
      <point x="70" y="668"/>
      <point x="95.6667" y="736.333"/>
      <point x="147" y="795" type="curve" smooth="no"/>
      <point x="95" y="852.333"/>
      <point x="69.3333" y="920.333"/>
      <point x="70" y="999" type="curve" smooth="no"/>
      <point x="70" y="1126" type="line" smooth="yes"/>
      <point x="70" y="1210.67"/>
      <point x="100" y="1283.17"/>
      <point x="160" y="1343.5" type="curve" smooth="yes"/>
      <point x="220" y="1403.84"/>
      <point x="292.333" y="1434"/>
    </contour>
    <contour>
      <point x="377" y="1229" type="curve" smooth="yes"/>
      <point x="348.333" y="1229"/>
      <point x="324" y="1219"/>
      <point x="304" y="1199" type="curve" smooth="yes"/>
      <point x="284" y="1179"/>
      <point x="274" y="1154.67"/>
      <point x="274" y="1126" type="curve" smooth="yes"/>
      <point x="274" y="999" type="line" smooth="yes"/>
      <point x="274" y="969"/>
      <point x="284" y="944.5"/>
      <point x="304" y="925.5" type="curve" smooth="yes"/>
      <point x="324" y="906.5"/>
      <point x="348.333" y="897"/>
      <point x="377" y="897" type="curve" smooth="yes"/>
      <point x="405.667" y="897"/>
      <point x="429.833" y="906.5"/>
      <point x="449.5" y="925.5" type="curve" smooth="yes"/>
      <point x="469.167" y="944.5"/>
      <point x="479" y="969"/>
      <point x="479" y="999" type="curve" smooth="yes"/>
      <point x="479" y="1126" type="line" smooth="yes"/>
      <point x="478.999" y="1154.67"/>
      <point x="469.166" y="1179"/>
      <point x="449.5" y="1199" type="curve" smooth="yes"/>
      <point x="429.833" y="1219"/>
      <point x="405.666" y="1229"/>
    </contour>
    <contour>
      <point x="377" y="692" type="curve" smooth="yes"/>
      <point x="348.333" y="692"/>
      <point x="324" y="682.167"/>
      <point x="304" y="662.5" type="curve" smooth="yes"/>
      <point x="284" y="642.833"/>
      <point x="274" y="618.667"/>
      <point x="274" y="590" type="curve" smooth="yes"/>
      <point x="274" y="307" type="line" smooth="yes"/>
      <point x="274" y="278.333"/>
      <point x="284" y="254.167"/>
      <point x="304" y="234.5" type="curve" smooth="yes"/>
      <point x="324" y="214.833"/>
      <point x="348.333" y="205"/>
      <point x="377" y="205" type="curve" smooth="yes"/>
      <point x="405.667" y="205"/>
      <point x="429.833" y="214.833"/>
      <point x="449.5" y="234.5" type="curve" smooth="yes"/>
      <point x="469.167" y="254.167"/>
      <point x="479" y="278.333"/>
      <point x="479" y="307" type="curve" smooth="yes"/>
      <point x="479" y="590" type="line" smooth="yes"/>
      <point x="478.999" y="618.668"/>
      <point x="469.166" y="642.834"/>
      <point x="449.5" y="662.5" type="curve" smooth="yes"/>
      <point x="429.833" y="682.169"/>
      <point x="405.666" y="692.003"/>
    </contour>
  </outline>
</glyph>
<glyph name="colon" format="1">
  <advance width="376"/>
  <unicode hex="003a"/>
  <outline>
    <contour>
      <point x="86" y="1024" type="line" smooth="no"/>
      <point x="291" y="1024" type="line" smooth="no"/>
      <point x="291" y="819" type="line" smooth="no"/>
      <point x="86" y="819" type="line" smooth="no"/>
    </contour>
    <contour>
      <point x="86" y="205" type="line" smooth="no"/>
      <point x="291" y="205" type="line" smooth="no"/>
      <point x="291" y="0" type="line" smooth="no"/>
      <point x="86" y="0" type="line" smooth="no"/>
    </contour>
  </outline>
</glyph>
<glyph name="equal" format="1">
  <advance width="671"/>
  <unicode hex="003d"/>
  <outline>
    <contour>
      <point x="90" y="479" type="line" smooth="no"/>
      <point x="582" y="479" type="line" smooth="no"/>
      <point x="582" y="315" type="line" smooth="no"/>
      <point x="90" y="315" type="line" smooth="no"/>
    </contour>
    <contour>
      <point x="90" y="729" type="line" smooth="no"/>
      <point x="582" y="729" type="line" smooth="no"/>
      <point x="582" y="565" type="line" smooth="no"/>
      <point x="90" y="565" type="line" smooth="no"/>
    </contour>
  </outline>
</glyph>
<glyph name="question" format="1">
  <advance width="745"/>
  <unicode hex="003f"/>
  <outline>
    <contour>
      <point x="373" y="1434" type="curve" smooth="yes"/>
      <point x="457.667" y="1434"/>
      <point x="530" y="1403.83"/>
      <point x="590" y="1343.5" type="curve" smooth="yes"/>
      <point x="650" y="1283.17"/>
      <point x="680" y="1210.67"/>
      <point x="680" y="1126" type="curve" smooth="yes"/>
      <point x="680" y="973" type="line" smooth="yes"/>
      <point x="680" y="919.666"/>
      <point x="665.667" y="862.333"/>
      <point x="637" y="801" type="curve" smooth="yes"/>
      <point x="625" y="775"/>
      <point x="601.5" y="736"/>
      <point x="566.5" y="684" type="curve" smooth="yes"/>
      <point x="531.5" y="632"/>
      <point x="509.333" y="591.667"/>
      <point x="500" y="563" type="curve" smooth="no"/>
      <point x="493.333" y="539.667"/>
      <point x="487.833" y="515.5"/>
      <point x="483.5" y="490.5" type="curve" smooth="yes"/>
      <point x="479.167" y="465.5"/>
      <point x="476.333" y="445.333"/>
      <point x="475" y="430" type="curve" smooth="no"/>
      <point x="475" y="410" type="line" smooth="no"/>
      <point x="475" y="307" type="line" smooth="no"/>
      <point x="270" y="307" type="line" smooth="no"/>
      <point x="270" y="461" type="line" smooth="yes"/>
      <point x="270" y="514.333"/>
      <point x="284.333" y="571.667"/>
      <point x="313" y="633" type="curve" smooth="yes"/>
      <point x="325" y="659"/>
      <point x="348.5" y="697.833"/>
      <point x="383.5" y="749.5" type="curve" smooth="yes"/>
      <point x="418.5" y="801.168"/>
      <point x="441" y="841.335"/>
      <point x="451" y="870" type="curve" smooth="no"/>
      <point x="457.667" y="893.333"/>
      <point x="463" y="917.667"/>
      <point x="467" y="943" type="curve" smooth="yes"/>
      <point x="471.005" y="968.333"/>
      <point x="473.672" y="988.667"/>
      <point x="475" y="1004" type="curve" smooth="no"/>
      <point x="475" y="1024" type="line" smooth="no"/>
      <point x="475" y="1126" type="line" smooth="yes"/>
      <point x="474.999" y="1154.67"/>
      <point x="465.166" y="1179"/>
      <point x="445.5" y="1199" type="curve" smooth="yes"/>
      <point x="425.833" y="1219"/>
      <point x="401.666" y="1229"/>
      <point x="373" y="1229" type="curve" smooth="yes"/>
      <point x="344.333" y="1229"/>
      <point x="320" y="1219"/>
      <point x="300" y="1199" type="curve" smooth="yes"/>
      <point x="280" y="1179"/>
      <point x="270" y="1154.67"/>
      <point x="270" y="1126" type="curve" smooth="yes"/>
      <point x="270" y="1024" type="line" smooth="no"/>
      <point x="66" y="1024" type="line" smooth="no"/>
      <point x="66" y="1126" type="line" smooth="yes"/>
      <point x="66" y="1210.67"/>
      <point x="96" y="1283.17"/>
      <point x="156" y="1343.5" type="curve" smooth="yes"/>
      <point x="216" y="1403.84"/>
      <point x="288.333" y="1434"/>
    </contour>
    <contour>
      <point x="270" y="205" type="line" smooth="no"/>
      <point x="475" y="205" type="line" smooth="no"/>
      <point x="475" y="0" type="line" smooth="no"/>
      <point x="270" y="0" type="line" smooth="no"/>
    </contour>
  </outline>
</glyph>
<glyph name="A" format="1">
  <advance width="825"/>
  <unicode hex="0041"/>
  <outline>
    <contour>
      <point x="311" y="1434" type="line" smooth="no"/>
      <point x="514" y="1434" type="line" smooth="no"/>
      <point x="821" y="0" type="line" smooth="no"/>
      <point x="618" y="0" type="line" smooth="no"/>
      <point x="557" y="307" type="line" smooth="no"/>
      <point x="268" y="309" type="line" smooth="no"/>
      <point x="207" y="0" type="line" smooth="no"/>
      <point x="4" y="0" type="line" smooth="no"/>
    </contour>
    <contour>
      <point x="412" y="1024" type="line" smooth="no"/>
      <point x="309" y="510" type="line" smooth="no"/>
      <point x="516" y="510" type="line" smooth="no"/>
      <point x="414" y="1024" type="line" smooth="no"/>
    </contour>
  </outline>
</glyph>
<glyph name="B" format="1">
  <advance width="808"/>
  <unicode hex="0042"/>
  <outline>
    <contour>
      <point x="98" y="1432" type="line" smooth="no"/>
      <point x="508" y="1432" type="line" smooth="yes"/>
      <point x="564" y="1432"/>
      <point x="611.834" y="1412.17"/>
      <point x="651.5" y="1372.5" type="curve" smooth="yes"/>
      <point x="691.168" y="1332.83"/>
      <point x="711.001" y="1284.33"/>
      <point x="711" y="1227" type="curve" smooth="yes"/>
      <point x="711" y="793" type="line" smooth="yes"/>
      <point x="711" y="772.333"/>
      <point x="703.5" y="754.5"/>
      <point x="688.5" y="739.5" type="curve" smooth="yes"/>
      <point x="673.5" y="724.5"/>
      <point x="655.667" y="717"/>
      <point x="635" y="717" type="curve" smooth="no"/>
      <point x="635" y="715" type="line" smooth="no"/>
      <point x="655.667" y="715"/>
      <point x="673.5" y="707.5"/>
      <point x="688.5" y="692.5" type="curve" smooth="yes"/>
      <point x="703.5" y="677.5"/>
      <point x="711" y="659.667"/>
      <point x="711" y="639" type="curve" smooth="yes"/>
      <point x="711" y="203" type="line" smooth="yes"/>
      <point x="711" y="147"/>
      <point x="691.167" y="99.1666"/>
      <point x="651.5" y="59.5" type="curve" smooth="yes"/>
      <point x="611.833" y="19.8333"/>
      <point x="564" y="6.55651e-07"/>
      <point x="508" y="0" type="curve" smooth="yes"/>
      <point x="98" y="0" type="line" smooth="no"/>
    </contour>
    <contour>
      <point x="301" y="1229" type="line" smooth="no"/>
      <point x="301" y="817" type="line" smooth="no"/>
      <point x="430" y="817" type="line" smooth="yes"/>
      <point x="452" y="817"/>
      <point x="470.5" y="824.5"/>
      <point x="485.5" y="839.5" type="curve" smooth="yes"/>
      <point x="500.5" y="854.5"/>
      <point x="508" y="873"/>
      <point x="508" y="895" type="curve" smooth="yes"/>
      <point x="508" y="1151" type="line" smooth="yes"/>
      <point x="508" y="1173"/>
      <point x="500.5" y="1191.5"/>
      <point x="485.5" y="1206.5" type="curve" smooth="yes"/>
      <point x="470.5" y="1221.5"/>
      <point x="452" y="1229"/>
      <point x="430" y="1229" type="curve" smooth="yes"/>
    </contour>
    <contour>
      <point x="301" y="614" type="line" smooth="no"/>
      <point x="301" y="203" type="line" smooth="no"/>
      <point x="430" y="203" type="line" smooth="yes"/>
      <point x="452" y="203"/>
      <point x="470.5" y="210.5"/>
      <point x="485.5" y="225.5" type="curve" smooth="yes"/>
      <point x="500.5" y="240.5"/>
      <point x="508" y="259"/>
      <point x="508" y="281" type="curve" smooth="yes"/>
      <point x="508" y="537" type="line" smooth="yes"/>
      <point x="508" y="559.001"/>
      <point x="500.5" y="577.334"/>
      <point x="485.5" y="592" type="curve" smooth="yes"/>
      <point x="470.5" y="606.669"/>
      <point x="452" y="614.003"/>
      <point x="430" y="614" type="curve" smooth="yes"/>
    </contour>
  </outline>
</glyph>
<glyph name="D" format="1">
  <advance width="808"/>
  <unicode hex="0044"/>
  <outline>
    <contour>
      <point x="98" y="1434" type="line" smooth="no"/>
      <point x="508" y="1434" type="line" smooth="yes"/>
      <point x="564" y="1434"/>
      <point x="611.834" y="1414.17"/>
      <point x="651.5" y="1374.5" type="curve" smooth="yes"/>
      <point x="691.168" y="1334.83"/>
      <point x="711.001" y="1286.33"/>
      <point x="711" y="1229" type="curve" smooth="yes"/>
      <point x="711" y="203" type="line" smooth="yes"/>
      <point x="711" y="147"/>
      <point x="691.167" y="99.1666"/>
      <point x="651.5" y="59.5" type="curve" smooth="yes"/>
      <point x="611.833" y="19.8333"/>
      <point x="564" y="6.55651e-07"/>
      <point x="508" y="0" type="curve" smooth="yes"/>
      <point x="98" y="0" type="line" smooth="no"/>
    </contour>
    <contour>
      <point x="301" y="1231" type="line" smooth="no"/>
      <point x="301" y="203" type="line" smooth="no"/>
      <point x="430" y="203" type="line" smooth="yes"/>
      <point x="452" y="203"/>
      <point x="470.5" y="210.5"/>
      <point x="485.5" y="225.5" type="curve" smooth="yes"/>
      <point x="500.5" y="240.5"/>
      <point x="508" y="259"/>
      <point x="508" y="281" type="curve" smooth="yes"/>
      <point x="508" y="1153" type="line" smooth="yes"/>
      <point x="508" y="1175"/>
      <point x="500.5" y="1193.5"/>
      <point x="485.5" y="1208.5" type="curve" smooth="yes"/>
      <point x="470.5" y="1223.5"/>
      <point x="452" y="1231"/>
      <point x="430" y="1231" type="curve" smooth="yes"/>
    </contour>
  </outline>
</glyph>
<glyph name="F" format="1">
  <advance width="749"/>
  <unicode hex="0046"/>
  <outline>
    <contour>
      <point x="98" y="1434" type="line" smooth="no"/>
      <point x="98" y="0" type="line" smooth="no"/>
      <point x="303" y="0" type="line" smooth="no"/>
      <point x="303" y="614" type="line" smooth="no"/>
      <point x="610" y="614" type="line" smooth="no"/>
      <point x="610" y="819" type="line" smooth="no"/>
      <point x="303" y="819" type="line" smooth="no"/>
      <point x="303" y="1229" type="line" smooth="no"/>
      <point x="713" y="1229" type="line" smooth="no"/>
      <point x="713" y="1434" type="line" smooth="no"/>
    </contour>
  </outline>
</glyph>
<glyph name="H" format="1">
  <advance width="811"/>
  <unicode hex="0048"/>
  <outline>
    <contour>
      <point x="98" y="1434" type="line" smooth="no"/>
      <point x="303" y="1434" type="line" smooth="no"/>
      <point x="303" y="819" type="line" smooth="no"/>
      <point x="508" y="819" type="line" smooth="no"/>
      <point x="508" y="1434" type="line" smooth="no"/>
      <point x="713" y="1434" type="line" smooth="no"/>
      <point x="713" y="0" type="line" smooth="no"/>
      <point x="508" y="0" type="line" smooth="no"/>
      <point x="508" y="614" type="line" smooth="no"/>
      <point x="303" y="614" type="line" smooth="no"/>
      <point x="303" y="0" type="line" smooth="no"/>
      <point x="98" y="0" type="line" smooth="no"/>
    </contour>
  </outline>
</glyph>
<glyph name="J" format="1">
  <advance width="462"/>
  <unicode hex="004a"/>
  <outline>
    <contour>
      <point x="160" y="1434" type="line" smooth="no"/>
      <point x="365" y="1434" type="line" smooth="no"/>
      <point x="365" y="205" type="line" smooth="yes"/>
      <point x="365" y="149"/>
      <point x="344.833" y="100.833"/>
      <point x="304.5" y="60.5" type="curve" smooth="yes"/>
      <point x="264.167" y="20.1667"/>
      <point x="216" y="0"/>
      <point x="160" y="0" type="curve" smooth="yes"/>
      <point x="-45" y="0" type="line" smooth="no"/>
      <point x="-45" y="205" type="line" smooth="no"/>
      <point x="57" y="205" type="line" smooth="yes"/>
      <point x="85.6667" y="205"/>
      <point x="110" y="214.833"/>
      <point x="130" y="234.5" type="curve" smooth="yes"/>
      <point x="150" y="254.167"/>
      <point x="160" y="278.333"/>
      <point x="160" y="307" type="curve" smooth="yes"/>
    </contour>
  </outline>
</glyph>
<glyph name="K" format="1">
  <advance width="706"/>
  <unicode hex="004b"/>
  <outline>
    <contour>
      <point x="98" y="1434" type="line" smooth="no"/>
      <point x="303" y="1434" type="line" smooth="no"/>
      <point x="303" y="922" type="line" smooth="no"/>
      <point x="508" y="1434" type="line" smooth="no"/>
      <point x="713" y="1434" type="line" smooth="no"/>
      <point x="477" y="844" type="line" smooth="no"/>
      <point x="713" y="0" type="line" smooth="no"/>
      <point x="508" y="0" type="line" smooth="no"/>
      <point x="354" y="537" type="line" smooth="no"/>
      <point x="303" y="410" type="line" smooth="no"/>
      <point x="303" y="0" type="line" smooth="no"/>
      <point x="98" y="0" type="line" smooth="no"/>
    </contour>
  </outline>
</glyph>
<glyph name="L" format="1">
  <advance width="749"/>
  <unicode hex="004c"/>
  <outline>
    <contour>
      <point x="98" y="0" type="line" smooth="no"/>
      <point x="98" y="1434" type="line" smooth="no"/>
      <point x="303" y="1434" type="line" smooth="no"/>
      <point x="303" y="205" type="line" smooth="no"/>
      <point x="713" y="205" type="line" smooth="no"/>
      <point x="713" y="0" type="line" smooth="no"/>
    </contour>
  </outline>
</glyph>
<glyph name="M" format="1">
  <advance width="1118"/>
  <unicode hex="004d"/>
  <outline>
    <contour>
      <point x="457" y="307" type="line" smooth="no"/>
      <point x="303" y="768" type="line" smooth="no"/>
      <point x="303" y="0" type="line" smooth="no"/>
      <point x="98" y="0" type="line" smooth="no"/>
      <point x="98" y="1434" type="line" smooth="no"/>
      <point x="303" y="1434" type="line" smooth="no"/>
      <point x="559" y="666" type="line" smooth="no"/>
      <point x="815" y="1434" type="line" smooth="no"/>
      <point x="1020" y="1434" type="line" smooth="no"/>
      <point x="1020" y="0" type="line" smooth="no"/>
      <point x="815" y="0" type="line" smooth="no"/>
      <point x="815" y="768" type="line" smooth="no"/>
      <point x="662" y="307" type="line" smooth="no"/>
    </contour>
  </outline>
</glyph>
<glyph name="N" format="1">
  <advance width="794"/>
  <unicode hex="004e"/>
  <outline>
    <contour>
      <point x="90" y="1434" type="line" smooth="no"/>
      <point x="295" y="1434" type="line" smooth="no"/>
      <point x="500" y="717" type="line" smooth="no"/>
      <point x="500" y="1434" type="line" smooth="no"/>
      <point x="705" y="1434" type="line" smooth="no"/>
      <point x="705" y="0" type="line" smooth="no"/>
      <point x="500" y="0" type="line" smooth="no"/>
      <point x="295" y="717" type="line" smooth="no"/>
      <point x="295" y="0" type="line" smooth="no"/>
      <point x="90" y="0" type="line" smooth="no"/>
    </contour>
  </outline>
</glyph>
<glyph name="P" format="1">
  <advance width="768"/>
  <unicode hex="0050"/>
  <outline>
    <contour>
      <point x="98" y="1432" type="line" smooth="no"/>
      <point x="508" y="1432" type="line" smooth="yes"/>
      <point x="564" y="1432"/>
      <point x="611.834" y="1412.17"/>
      <point x="651.5" y="1372.5" type="curve" smooth="yes"/>
      <point x="691.168" y="1332.83"/>
      <point x="711.001" y="1284.33"/>
      <point x="711" y="1227" type="curve" smooth="yes"/>
      <point x="711" y="817" type="line" smooth="yes"/>
      <point x="711" y="761"/>
      <point x="691.167" y="713.167"/>
      <point x="651.5" y="673.5" type="curve" smooth="yes"/>
      <point x="611.833" y="633.833"/>
      <point x="564" y="614"/>
      <point x="508" y="614" type="curve" smooth="yes"/>
      <point x="301" y="614" type="line" smooth="no"/>
      <point x="301" y="0" type="line" smooth="no"/>
      <point x="98" y="0" type="line" smooth="no"/>
    </contour>
    <contour>
      <point x="301" y="1229" type="line" smooth="no"/>
      <point x="301" y="817" type="line" smooth="no"/>
      <point x="430" y="817" type="line" smooth="yes"/>
      <point x="452" y="817"/>
      <point x="470.5" y="824.5"/>
      <point x="485.5" y="839.5" type="curve" smooth="yes"/>
      <point x="500.5" y="854.5"/>
      <point x="508" y="873"/>
      <point x="508" y="895" type="curve" smooth="yes"/>
      <point x="508" y="1151" type="line" smooth="yes"/>
      <point x="508" y="1173"/>
      <point x="500.5" y="1191.5"/>
      <point x="485.5" y="1206.5" type="curve" smooth="yes"/>
      <point x="470.5" y="1221.5"/>
      <point x="452" y="1229"/>
      <point x="430" y="1229" type="curve" smooth="yes"/>
    </contour>
  </outline>
</glyph>
<glyph name="Q" format="1">
  <advance width="790"/>
  <unicode hex="0051"/>
  <outline>
    <contour>
      <point x="393" y="1434" type="curve" smooth="yes"/>
      <point x="477.667" y="1434"/>
      <point x="550" y="1403.83"/>
      <point x="610" y="1343.5" type="curve" smooth="yes"/>
      <point x="670" y="1283.17"/>
      <point x="700" y="1210.67"/>
      <point x="700" y="1126" type="curve" smooth="yes"/>
      <point x="700" y="299" type="line" smooth="yes"/>
      <point x="700" y="270.333"/>
      <point x="710" y="246.167"/>
      <point x="730" y="226.5" type="curve" smooth="yes"/>
      <point x="750.001" y="206.833"/>
      <point x="774.335" y="197"/>
      <point x="803" y="197" type="curve" smooth="no"/>
      <point x="803" y="-8" type="line" smooth="no"/>
      <point x="722.333" y="-8"/>
      <point x="652.667" y="19.3333"/>
      <point x="594" y="74" type="curve" smooth="no"/>
      <point x="536.666" y="24.6667"/>
      <point x="469.666" y="0"/>
      <point x="393" y="0" type="curve" smooth="yes"/>
      <point x="308.333" y="0"/>
      <point x="236" y="30"/>
      <point x="176" y="90" type="curve" smooth="yes"/>
      <point x="116" y="150"/>
      <point x="86" y="222.333"/>
      <point x="86" y="307" type="curve" smooth="yes"/>
      <point x="86" y="1126" type="line" smooth="yes"/>
      <point x="86" y="1210.67"/>
      <point x="116" y="1283.17"/>
      <point x="176" y="1343.5" type="curve" smooth="yes"/>
      <point x="236" y="1403.84"/>
      <point x="308.333" y="1434"/>
    </contour>
    <contour>
      <point x="393" y="1229" type="curve" smooth="yes"/>
      <point x="364.333" y="1229"/>
      <point x="340.166" y="1219"/>
      <point x="320.5" y="1199" type="curve" smooth="yes"/>
      <point x="300.833" y="1179"/>
      <point x="291" y="1154.67"/>
      <point x="291" y="1126" type="curve" smooth="yes"/>
      <point x="291" y="307" type="line" smooth="yes"/>
      <point x="291" y="278.333"/>
      <point x="300.833" y="254.167"/>
      <point x="320.5" y="234.5" type="curve" smooth="yes"/>
      <point x="340.167" y="214.833"/>
      <point x="364.333" y="205"/>
      <point x="393" y="205" type="curve" smooth="yes"/>
      <point x="421.667" y="205"/>
      <point x="446" y="214.833"/>
      <point x="466" y="234.5" type="curve" smooth="yes"/>
      <point x="486" y="254.167"/>
      <point x="496" y="278.333"/>
      <point x="496" y="307" type="curve" smooth="yes"/>
      <point x="496" y="1126" type="line" smooth="yes"/>
      <point x="496" y="1154.67"/>
      <point x="486" y="1179"/>
      <point x="466" y="1199" type="curve" smooth="yes"/>
      <point x="446" y="1219"/>
      <point x="421.666" y="1229"/>
    </contour>
  </outline>
</glyph>
<glyph name="R" format="1">
  <advance width="788"/>
  <unicode hex="0052"/>
  <outline>
    <contour>
      <point x="98" y="1432" type="line" smooth="no"/>
      <point x="508" y="1430" type="line" smooth="yes"/>
      <point x="564" y="1430"/>
      <point x="611.834" y="1410.17"/>
      <point x="651.5" y="1370.5" type="curve" smooth="yes"/>
      <point x="691.168" y="1330.83"/>
      <point x="711.001" y="1283"/>
      <point x="711" y="1227" type="curve" smooth="yes"/>
      <point x="711" y="817" type="line" smooth="yes"/>
      <point x="710.999" y="739"/>
      <point x="677.332" y="680.333"/>
      <point x="610" y="641" type="curve" smooth="no"/>
      <point x="711" y="0" type="line" smooth="no"/>
      <point x="508" y="0" type="line" smooth="no"/>
      <point x="406" y="614" type="line" smooth="no"/>
      <point x="301" y="614" type="line" smooth="no"/>
      <point x="301" y="0" type="line" smooth="no"/>
      <point x="98" y="0" type="line" smooth="no"/>
    </contour>
    <contour>
      <point x="301" y="1229" type="line" smooth="no"/>
      <point x="301" y="815" type="line" smooth="no"/>
      <point x="430" y="815" type="line" smooth="yes"/>
      <point x="452" y="815.002"/>
      <point x="470.5" y="822.835"/>
      <point x="485.5" y="838.5" type="curve" smooth="yes"/>
      <point x="500.5" y="854.169"/>
      <point x="508" y="872.336"/>
      <point x="508" y="893" type="curve" smooth="yes"/>
      <point x="508" y="1149" type="line" smooth="yes"/>
      <point x="508" y="1171"/>
      <point x="500.5" y="1189.83"/>
      <point x="485.5" y="1205.5" type="curve" smooth="yes"/>
      <point x="470.5" y="1221.17"/>
      <point x="452" y="1229"/>
      <point x="430" y="1229" type="curve" smooth="yes"/>
    </contour>
  </outline>
</glyph>
<glyph name="S" format="1">
  <advance width="729"/>
  <unicode hex="0053"/>
  <outline>
    <contour>
      <point x="57" y="410" type="line" smooth="no"/>
      <point x="57" y="307" type="line" smooth="yes"/>
      <point x="57" y="222.333"/>
      <point x="87.1667" y="150"/>
      <point x="147.5" y="90" type="curve" smooth="yes"/>
      <point x="207.833" y="30"/>
      <point x="280.333" y="0"/>
      <point x="365" y="0" type="curve" smooth="yes"/>
      <point x="449.667" y="0"/>
      <point x="522" y="30"/>
      <point x="582" y="90" type="curve" smooth="yes"/>
      <point x="642" y="150"/>
      <point x="672" y="222.333"/>
      <point x="672" y="307" type="curve" smooth="yes"/>
      <point x="672" y="512" type="line" smooth="yes"/>
      <point x="672" y="590"/>
      <point x="646" y="658.334"/>
      <point x="594" y="717" type="curve" smooth="no"/>
      <point x="532.667" y="785"/>
      <point x="456.333" y="819"/>
      <point x="365" y="819" type="curve" smooth="yes"/>
      <point x="336.333" y="819"/>
      <point x="312" y="829"/>
      <point x="292" y="849" type="curve" smooth="yes"/>
      <point x="272" y="869.001"/>
      <point x="262" y="893.334"/>
      <point x="262" y="922" type="curve" smooth="yes"/>
      <point x="262" y="1126" type="line" smooth="yes"/>
      <point x="262" y="1154.67"/>
      <point x="272" y="1179"/>
      <point x="292" y="1199" type="curve" smooth="yes"/>
      <point x="312" y="1219"/>
      <point x="336.333" y="1229"/>
      <point x="365" y="1229" type="curve" smooth="yes"/>
      <point x="393.667" y="1229"/>
      <point x="417.833" y="1219"/>
      <point x="437.5" y="1199" type="curve" smooth="yes"/>
      <point x="457.167" y="1179"/>
      <point x="467" y="1154.67"/>
      <point x="467" y="1126" type="curve" smooth="yes"/>
      <point x="467" y="1024" type="line" smooth="no"/>
      <point x="653" y="1024" type="line" smooth="no"/>
      <point x="672" y="1024" type="line" smooth="no"/>
      <point x="672" y="1126" type="line" smooth="yes"/>
      <point x="672" y="1210.67"/>
      <point x="642" y="1283.17"/>
      <point x="582" y="1343.5" type="curve" smooth="yes"/>
      <point x="522" y="1403.84"/>
      <point x="449.666" y="1434"/>
      <point x="365" y="1434" type="curve" smooth="yes"/>
      <point x="280.333" y="1434"/>
      <point x="207.833" y="1403.83"/>
      <point x="147.5" y="1343.5" type="curve" smooth="yes"/>
      <point x="87.1667" y="1283.17"/>
      <point x="57" y="1210.67"/>
      <point x="57" y="1126" type="curve" smooth="yes"/>
      <point x="57" y="922" type="line" smooth="yes"/>
      <point x="57" y="844"/>
      <point x="83" y="775.667"/>
      <point x="135" y="717" type="curve" smooth="no"/>
      <point x="196.333" y="649"/>
      <point x="273" y="614.667"/>
      <point x="365" y="614" type="curve" smooth="yes"/>
      <point x="393.667" y="614"/>
      <point x="417.833" y="604.167"/>
      <point x="437.5" y="584.5" type="curve" smooth="yes"/>
      <point x="457.167" y="564.833"/>
      <point x="467" y="540.667"/>
      <point x="467" y="512" type="curve" smooth="yes"/>
      <point x="467" y="307" type="line" smooth="yes"/>
      <point x="466.999" y="278.333"/>
      <point x="457.166" y="254.167"/>
      <point x="437.5" y="234.5" type="curve" smooth="yes"/>
      <point x="417.833" y="214.833"/>
      <point x="393.666" y="205"/>
      <point x="365" y="205" type="curve" smooth="yes"/>
      <point x="336.333" y="205"/>
      <point x="312" y="214.833"/>
      <point x="292" y="234.5" type="curve" smooth="yes"/>
      <point x="272" y="254.167"/>
      <point x="262" y="278.333"/>
      <point x="262" y="307" type="curve" smooth="yes"/>
      <point x="262" y="410" type="line" smooth="no"/>
    </contour>
  </outline>
</glyph>
<glyph name="T" format="1">
  <advance width="602"/>
  <unicode hex="0054"/>
  <outline>
    <contour>
      <point x="-6" y="1434" type="line" smooth="no"/>
      <point x="608" y="1434" type="line" smooth="no"/>
      <point x="608" y="1229" type="line" smooth="no"/>
      <point x="403" y="1229" type="line" smooth="no"/>
      <point x="403" y="0" type="line" smooth="no"/>
      <point x="199" y="0" type="line" smooth="no"/>
      <point x="199" y="1229" type="line" smooth="no"/>
      <point x="-6" y="1229" type="line" smooth="no"/>
    </contour>
  </outline>
</glyph>
<glyph name="V" format="1">
  <advance width="770"/>
  <unicode hex="0056"/>
  <outline>
    <contour>
      <point x="27" y="1434" type="line" smooth="no"/>
      <point x="283" y="-2" type="line" smooth="no"/>
      <point x="489" y="-2" type="line" smooth="no"/>
      <point x="745" y="1434" type="line" smooth="no"/>
      <point x="539" y="1434" type="line" smooth="no"/>
      <point x="539" y="1432" type="line" smooth="no"/>
      <point x="385" y="594" type="line" smooth="no"/>
      <point x="233" y="1432" type="line" smooth="no"/>
      <point x="233" y="1434" type="line" smooth="no"/>
    </contour>
  </outline>
</glyph>
<glyph name="Z" format="1">
  <advance width="673"/>
  <unicode hex="005a"/>
  <outline>
    <contour>
      <point x="31" y="1434" type="line" smooth="no"/>
      <point x="31" y="1229" type="line" smooth="no"/>
      <point x="440" y="1229" type="line" smooth="no"/>
      <point x="31" y="203" type="line" smooth="no"/>
      <point x="31" y="0" type="line" smooth="no"/>
      <point x="643" y="0" type="line" smooth="no"/>
      <point x="643" y="203" type="line" smooth="no"/>
      <point x="233" y="203" type="line" smooth="no"/>
      <point x="643" y="1229" type="line" smooth="no"/>
      <point x="643" y="1432" type="line" smooth="no"/>
    </contour>
  </outline>
</glyph>
<glyph name="bracketleft" format="1">
  <advance width="544"/>
  <unicode hex="005b"/>
  <outline>
    <contour>
      <point x="528" y="1535" type="line" smooth="no"/>
      <point x="325" y="1535" type="line" smooth="no"/>
      <point x="325" y="-102" type="line" smooth="no"/>
      <point x="528" y="-102" type="line" smooth="no"/>
      <point x="528" y="-204" type="line" smooth="no"/>
      <point x="119" y="-204" type="line" smooth="no"/>
      <point x="119" y="-102" type="line" smooth="no"/>
      <point x="119" y="1535" type="line" smooth="no"/>
      <point x="119" y="1637" type="line" smooth="no"/>
      <point x="528" y="1637" type="line" smooth="no"/>
    </contour>
  </outline>
</glyph>
<glyph name="bracketright" format="1">
  <advance width="544"/>
  <unicode hex="005d"/>
  <outline>
    <contour>
      <point x="16" y="1535" type="line" smooth="no"/>
      <point x="220" y="1535" type="line" smooth="no"/>
      <point x="220" y="-102" type="line" smooth="no"/>
      <point x="16" y="-102" type="line" smooth="no"/>
      <point x="16" y="-204" type="line" smooth="no"/>
      <point x="426" y="-204" type="line" smooth="no"/>
      <point x="426" y="-102" type="line" smooth="no"/>
      <point x="426" y="1535" type="line" smooth="no"/>
      <point x="426" y="1637" type="line" smooth="no"/>
      <point x="16" y="1637" type="line" smooth="no"/>
    </contour>
  </outline>
</glyph>
<glyph name="asciicircum" format="1">
  <advance width="733"/>
  <unicode hex="005e"/>
  <outline>
    <contour>
      <point x="76.9961" y="1224" type="line" smooth="no"/>
      <point x="298.104" y="1444.9" type="line" smooth="no"/>
      <point x="423.545" y="1444.9" type="line" smooth="no"/>
      <point x="644.445" y="1224" type="line" smooth="no"/>
      <point x="430.715" y="1224" type="line" smooth="no"/>
      <point x="360.755" y="1293.96" type="line" smooth="no"/>
      <point x="290.795" y="1224" type="line" smooth="no"/>
    </contour>
  </outline>
</glyph>
<glyph name="grave" format="1">
  <advance width="825"/>
  <unicode hex="0060"/>
  <outline>
    <contour>
      <point x="151.715" y="1462" type="line" smooth="no"/>
      <point x="346" y="1462" type="line" smooth="no"/>
      <point x="516" y="1224" type="line" smooth="no"/>
      <point x="355" y="1224" type="line" smooth="no"/>
    </contour>
  </outline>
</glyph>
<glyph name="b" format="1">
  <advance width="786"/>
  <unicode hex="0062"/>
  <outline>
    <contour>
      <point x="291" y="1434" type="line" smooth="no"/>
      <point x="86" y="1434" type="line" smooth="no"/>
      <point x="86" y="0" type="line" smooth="no"/>
      <point x="291" y="0" type="line" smooth="no"/>
      <point x="291" y="205" type="line" smooth="yes"/>
      <point x="291" y="199.667"/>
      <point x="291.333" y="192.167"/>
      <point x="292" y="182.5" type="curve" smooth="yes"/>
      <point x="292.667" y="172.833"/>
      <point x="296.667" y="156.333"/>
      <point x="304" y="133" type="curve" smooth="yes"/>
      <point x="311.334" y="109.667"/>
      <point x="321.5" y="89.1667"/>
      <point x="334.5" y="71.5" type="curve" smooth="yes"/>
      <point x="347.5" y="53.8333"/>
      <point x="368" y="37.5"/>
      <point x="396" y="22.5" type="curve" smooth="yes"/>
      <point x="424" y="7.5"/>
      <point x="457.167" y="0"/>
      <point x="495.5" y="0" type="curve" smooth="yes"/>
      <point x="533.833" y="-2.38419e-07"/>
      <point x="567" y="7.16667"/>
      <point x="595" y="21.5" type="curve" smooth="yes"/>
      <point x="623" y="35.8333"/>
      <point x="643.5" y="52.8333"/>
      <point x="656.5" y="72.5" type="curve" smooth="yes"/>
      <point x="669.5" y="92.1667"/>
      <point x="679.667" y="112"/>
      <point x="687" y="132" type="curve" smooth="yes"/>
      <point x="694.333" y="152"/>
      <point x="698" y="169.333"/>
      <point x="698" y="184" type="curve" smooth="no"/>
      <point x="700" y="205" type="line" smooth="no"/>
      <point x="700" y="307" type="line" smooth="no"/>
      <point x="700" y="717" type="line" smooth="no"/>
      <point x="700" y="819" type="line" smooth="yes"/>
      <point x="700" y="824.333"/>
      <point x="699.667" y="831.833"/>
      <point x="699" y="841.5" type="curve" smooth="yes"/>
      <point x="698.333" y="851.167"/>
      <point x="694.333" y="867.667"/>
      <point x="687" y="891" type="curve" smooth="yes"/>
      <point x="679.664" y="914.333"/>
      <point x="669.498" y="934.833"/>
      <point x="656.5" y="952.5" type="curve" smooth="yes"/>
      <point x="643.5" y="970.166"/>
      <point x="623" y="986.5"/>
      <point x="595" y="1001.5" type="curve" smooth="yes"/>
      <point x="567" y="1016.5"/>
      <point x="533.833" y="1024"/>
      <point x="495.5" y="1024" type="curve" smooth="yes"/>
      <point x="457.167" y="1023.99"/>
      <point x="424" y="1016.83"/>
      <point x="396" y="1002.5" type="curve" smooth="yes"/>
      <point x="368" y="988.167"/>
      <point x="347.5" y="971.167"/>
      <point x="334.5" y="951.5" type="curve" smooth="yes"/>
      <point x="321.5" y="931.833"/>
      <point x="311.333" y="912"/>
      <point x="304" y="892" type="curve" smooth="yes"/>
      <point x="296.667" y="872"/>
      <point x="293" y="854.667"/>
      <point x="293" y="840" type="curve" smooth="no"/>
      <point x="291" y="819" type="line" smooth="no"/>
    </contour>
    <contour>
      <point x="291" y="307" type="line" smooth="no"/>
      <point x="291" y="717" type="line" smooth="yes"/>
      <point x="291" y="719.672"/>
      <point x="291.333" y="723.338"/>
      <point x="292" y="728" type="curve" smooth="yes"/>
      <point x="292.667" y="732.672"/>
      <point x="294.667" y="740.838"/>
      <point x="298" y="752.5" type="curve" smooth="yes"/>
      <point x="301.335" y="764.171"/>
      <point x="306.168" y="774.504"/>
      <point x="312.5" y="783.5" type="curve" smooth="yes"/>
      <point x="318.834" y="792.5"/>
      <point x="329.167" y="800.667"/>
      <point x="343.5" y="808" type="curve" smooth="yes"/>
      <point x="357.833" y="815.333"/>
      <point x="374.333" y="819"/>
      <point x="393" y="819" type="curve" smooth="yes"/>
      <point x="423" y="819"/>
      <point x="446.5" y="810.5"/>
      <point x="463.5" y="793.5" type="curve" smooth="yes"/>
      <point x="480.5" y="776.5"/>
      <point x="490.666" y="759"/>
      <point x="494" y="741" type="curve" smooth="no"/>
      <point x="496" y="717" type="line" smooth="no"/>
      <point x="496" y="307" type="line" smooth="yes"/>
      <point x="495.985" y="304.331"/>
      <point x="495.652" y="300.664"/>
      <point x="495" y="296" type="curve" smooth="yes"/>
      <point x="494.325" y="291.332"/>
      <point x="492.159" y="283.166"/>
      <point x="488.5" y="271.5" type="curve" smooth="yes"/>
      <point x="484.833" y="259.833"/>
      <point x="480" y="249.5"/>
      <point x="474" y="240.5" type="curve" smooth="yes"/>
      <point x="468" y="231.5"/>
      <point x="457.833" y="223.333"/>
      <point x="443.5" y="216" type="curve" smooth="yes"/>
      <point x="429.167" y="208.666"/>
      <point x="412.5" y="205"/>
      <point x="393.5" y="205" type="curve" smooth="yes"/>
      <point x="374.5" y="205"/>
      <point x="357.833" y="208.334"/>
      <point x="343.5" y="215" type="curve" smooth="yes"/>
      <point x="329.167" y="221.667"/>
      <point x="318.833" y="230.167"/>
      <point x="312.5" y="240.5" type="curve" smooth="yes"/>
      <point x="306.167" y="250.834"/>
      <point x="301.333" y="261.167"/>
      <point x="298" y="271.5" type="curve" smooth="yes"/>
      <point x="294.667" y="281.833"/>
      <point x="292.333" y="290.333"/>
      <point x="291" y="297" type="curve" smooth="no"/>
    </contour>
  </outline>
</glyph>
<glyph name="c" format="1">
  <advance width="733"/>
  <unicode hex="0063"/>
  <outline>
    <contour>
      <point x="389" y="205" type="curve" smooth="yes"/>
      <point x="417.667" y="205"/>
      <point x="442" y="214.833"/>
      <point x="462" y="234.5" type="curve" smooth="yes"/>
      <point x="482" y="254.167"/>
      <point x="492" y="278.333"/>
      <point x="492" y="307" type="curve" smooth="no"/>
      <point x="696" y="307" type="line" smooth="no"/>
      <point x="696" y="222.333"/>
      <point x="666" y="150"/>
      <point x="606" y="90" type="curve" smooth="yes"/>
      <point x="546" y="30"/>
      <point x="473.666" y="0"/>
      <point x="389" y="0" type="curve" smooth="yes"/>
      <point x="304.333" y="0"/>
      <point x="232" y="30"/>
      <point x="172" y="90" type="curve" smooth="yes"/>
      <point x="112" y="150"/>
      <point x="82" y="222.333"/>
      <point x="82" y="307" type="curve" smooth="yes"/>
      <point x="82" y="717" type="line" smooth="yes"/>
      <point x="82" y="801.667"/>
      <point x="112" y="874"/>
      <point x="172" y="934" type="curve" smooth="yes"/>
      <point x="232" y="994"/>
      <point x="304.333" y="1024"/>
      <point x="389" y="1024" type="curve" smooth="yes"/>
      <point x="473.667" y="1024"/>
      <point x="546" y="994"/>
      <point x="606" y="934" type="curve" smooth="yes"/>
      <point x="666" y="874"/>
      <point x="696" y="801.667"/>
      <point x="696" y="717" type="curve" smooth="no"/>
      <point x="492" y="717" type="line" smooth="no"/>
      <point x="492" y="745.668"/>
      <point x="482" y="769.835"/>
      <point x="462" y="789.5" type="curve" smooth="yes"/>
      <point x="442" y="809.169"/>
      <point x="417.666" y="819.002"/>
      <point x="389" y="819" type="curve" smooth="yes"/>
      <point x="360.333" y="819"/>
      <point x="336.166" y="809.167"/>
      <point x="316.5" y="789.5" type="curve" smooth="yes"/>
      <point x="296.833" y="769.833"/>
      <point x="287" y="745.667"/>
      <point x="287" y="717" type="curve" smooth="yes"/>
      <point x="287" y="307" type="line" smooth="yes"/>
      <point x="287" y="278.333"/>
      <point x="296.833" y="254.167"/>
      <point x="316.5" y="234.5" type="curve" smooth="yes"/>
      <point x="336.167" y="214.833"/>
      <point x="360.333" y="205"/>
    </contour>
  </outline>
</glyph>
<glyph name="d" format="1">
  <advance width="786"/>
  <unicode hex="0064"/>
  <outline>
    <contour>
      <point x="496" y="1434" type="line" smooth="no"/>
      <point x="700" y="1434" type="line" smooth="no"/>
      <point x="700" y="0" type="line" smooth="no"/>
      <point x="496" y="0" type="line" smooth="no"/>
      <point x="496" y="205" type="line" smooth="yes"/>
      <point x="495.985" y="199.667"/>
      <point x="495.652" y="192.167"/>
      <point x="495" y="182.5" type="curve" smooth="yes"/>
      <point x="494.331" y="172.833"/>
      <point x="490.164" y="156.333"/>
      <point x="482.5" y="133" type="curve" smooth="yes"/>
      <point x="474.833" y="109.667"/>
      <point x="464.499" y="89.1667"/>
      <point x="451.5" y="71.5" type="curve" smooth="yes"/>
      <point x="438.5" y="53.8333"/>
      <point x="418" y="37.5"/>
      <point x="390" y="22.5" type="curve" smooth="yes"/>
      <point x="362" y="7.5"/>
      <point x="328.833" y="0"/>
      <point x="290.5" y="0" type="curve" smooth="yes"/>
      <point x="252.167" y="-2.38419e-07"/>
      <point x="219.167" y="7.16667"/>
      <point x="191.5" y="21.5" type="curve" smooth="yes"/>
      <point x="163.833" y="35.8333"/>
      <point x="143.5" y="52.8333"/>
      <point x="130.5" y="72.5" type="curve" smooth="yes"/>
      <point x="117.5" y="92.1667"/>
      <point x="107.167" y="112"/>
      <point x="99.5" y="132" type="curve" smooth="yes"/>
      <point x="91.8334" y="152"/>
      <point x="88" y="169.333"/>
      <point x="88" y="184" type="curve" smooth="no"/>
      <point x="86" y="205" type="line" smooth="no"/>
      <point x="86" y="307" type="line" smooth="no"/>
      <point x="86" y="717" type="line" smooth="no"/>
      <point x="86" y="819" type="line" smooth="yes"/>
      <point x="86" y="824.333"/>
      <point x="86.3333" y="831.833"/>
      <point x="87" y="841.5" type="curve" smooth="yes"/>
      <point x="87.6667" y="851.167"/>
      <point x="91.8333" y="867.667"/>
      <point x="99.5" y="891" type="curve" smooth="yes"/>
      <point x="107.167" y="914.333"/>
      <point x="117.5" y="934.833"/>
      <point x="130.5" y="952.5" type="curve" smooth="yes"/>
      <point x="143.5" y="970.166"/>
      <point x="163.833" y="986.5"/>
      <point x="191.5" y="1001.5" type="curve" smooth="yes"/>
      <point x="219.167" y="1016.5"/>
      <point x="252.167" y="1024"/>
      <point x="290.5" y="1024" type="curve" smooth="yes"/>
      <point x="328.833" y="1023.99"/>
      <point x="362" y="1016.83"/>
      <point x="390" y="1002.5" type="curve" smooth="yes"/>
      <point x="418" y="988.167"/>
      <point x="438.5" y="971.167"/>
      <point x="451.5" y="951.5" type="curve" smooth="yes"/>
      <point x="464.5" y="931.833"/>
      <point x="474.833" y="912"/>
      <point x="482.5" y="892" type="curve" smooth="yes"/>
      <point x="490.167" y="872"/>
      <point x="494" y="854.667"/>
      <point x="494" y="840" type="curve" smooth="no"/>
      <point x="496" y="819" type="line" smooth="no"/>
    </contour>
    <contour>
      <point x="496" y="307" type="line" smooth="no"/>
      <point x="496" y="717" type="line" smooth="yes"/>
      <point x="495.985" y="719.672"/>
      <point x="495.652" y="723.338"/>
      <point x="495" y="728" type="curve" smooth="yes"/>
      <point x="494.325" y="732.672"/>
      <point x="492.159" y="740.838"/>
      <point x="488.5" y="752.5" type="curve" smooth="yes"/>
      <point x="484.833" y="764.171"/>
      <point x="480" y="774.504"/>
      <point x="474" y="783.5" type="curve" smooth="yes"/>
      <point x="468" y="792.5"/>
      <point x="457.833" y="800.667"/>
      <point x="443.5" y="808" type="curve" smooth="yes"/>
      <point x="429.167" y="815.333"/>
      <point x="412.333" y="819"/>
      <point x="393" y="819" type="curve" smooth="yes"/>
      <point x="363" y="819"/>
      <point x="339.5" y="810.5"/>
      <point x="322.5" y="793.5" type="curve" smooth="yes"/>
      <point x="305.5" y="776.5"/>
      <point x="295.666" y="759"/>
      <point x="293" y="741" type="curve" smooth="no"/>
      <point x="291" y="717" type="line" smooth="no"/>
      <point x="291" y="307" type="line" smooth="yes"/>
      <point x="291" y="304.331"/>
      <point x="291.333" y="300.664"/>
      <point x="292" y="296" type="curve" smooth="yes"/>
      <point x="292.667" y="291.332"/>
      <point x="294.667" y="283.166"/>
      <point x="298" y="271.5" type="curve" smooth="yes"/>
      <point x="301.335" y="259.833"/>
      <point x="306.168" y="249.5"/>
      <point x="312.5" y="240.5" type="curve" smooth="yes"/>
      <point x="318.834" y="231.5"/>
      <point x="329.167" y="223.333"/>
      <point x="343.5" y="216" type="curve" smooth="yes"/>
      <point x="357.833" y="208.666"/>
      <point x="374.333" y="205"/>
      <point x="393" y="205" type="curve" smooth="yes"/>
      <point x="423" y="205"/>
      <point x="446.5" y="213.5"/>
      <point x="463.5" y="230.5" type="curve" smooth="yes"/>
      <point x="480.5" y="247.5"/>
      <point x="490.666" y="265"/>
      <point x="494" y="283" type="curve" smooth="no"/>
    </contour>
  </outline>
</glyph>
<glyph name="f" format="1">
  <advance width="450"/>
  <unicode hex="0066"/>
  <outline>
    <contour>
      <point x="430" y="1434" type="curve" smooth="no"/>
      <point x="430" y="1229" type="line" smooth="no"/>
      <point x="401.333" y="1229"/>
      <point x="377.166" y="1219"/>
      <point x="357.5" y="1199" type="curve" smooth="yes"/>
      <point x="337.833" y="1179"/>
      <point x="328" y="1154.67"/>
      <point x="328" y="1126" type="curve" smooth="yes"/>
      <point x="328" y="1024" type="line" smooth="no"/>
      <point x="430" y="1024" type="line" smooth="no"/>
      <point x="430" y="819" type="line" smooth="no"/>
      <point x="328" y="819" type="line" smooth="no"/>
      <point x="328" y="0" type="line" smooth="no"/>
      <point x="123" y="0" type="line" smooth="no"/>
      <point x="123" y="819" type="line" smooth="no"/>
      <point x="20" y="819" type="line" smooth="no"/>
      <point x="20" y="1024" type="line" smooth="no"/>
      <point x="123" y="1024" type="line" smooth="no"/>
      <point x="123" y="1130" type="line" smooth="no"/>
      <point x="124.333" y="1213.33"/>
      <point x="154.667" y="1284.83"/>
      <point x="214" y="1344.5" type="curve" smooth="yes"/>
      <point x="273.333" y="1404.17"/>
      <point x="345.333" y="1434"/>
    </contour>
  </outline>
</glyph>
<glyph name="i" format="1">
  <advance width="376"/>
  <unicode hex="0069"/>
  <outline>
    <contour>
      <point x="86" y="1434" type="line" smooth="no"/>
      <point x="291" y="1434" type="line" smooth="no"/>
      <point x="291" y="1229" type="line" smooth="no"/>
      <point x="86" y="1229" type="line" smooth="no"/>
    </contour>
    <contour>
      <point x="86" y="1024" type="line" smooth="no"/>
      <point x="291" y="1024" type="line" smooth="no"/>
      <point x="291" y="0" type="line" smooth="no"/>
      <point x="86" y="0" type="line" smooth="no"/>
    </contour>
  </outline>
</glyph>
<glyph name="j" format="1">
  <advance width="348"/>
  <unicode hex="006a"/>
  <outline>
    <contour>
      <point x="57" y="1434" type="line" smooth="no"/>
      <point x="262" y="1434" type="line" smooth="no"/>
      <point x="262" y="1229" type="line" smooth="no"/>
      <point x="57" y="1229" type="line" smooth="no"/>
    </contour>
    <contour>
      <point x="57" y="1024" type="line" smooth="no"/>
      <point x="262" y="1024" type="line" smooth="no"/>
      <point x="262" y="0" type="line" smooth="yes"/>
      <point x="262" y="-84.6667"/>
      <point x="232" y="-157"/>
      <point x="172" y="-217" type="curve" smooth="yes"/>
      <point x="112" y="-277"/>
      <point x="39.6667" y="-307"/>
      <point x="-45" y="-307" type="curve" smooth="no"/>
      <point x="-45" y="-102" type="line" smooth="no"/>
      <point x="-16.3333" y="-102"/>
      <point x="7.83333" y="-92.1667"/>
      <point x="27.5" y="-72.5" type="curve" smooth="yes"/>
      <point x="47.1667" y="-52.8333"/>
      <point x="57" y="-28.6667"/>
      <point x="57" y="0" type="curve" smooth="yes"/>
    </contour>
  </outline>
</glyph>
<glyph name="k" format="1">
  <advance width="686"/>
  <unicode hex="006b"/>
  <outline>
    <contour>
      <point x="86" y="1434" type="line" smooth="no"/>
      <point x="291" y="1434" type="line" smooth="no"/>
      <point x="291" y="614" type="line" smooth="no"/>
      <point x="496" y="1024" type="line" smooth="no"/>
      <point x="700" y="1024" type="line" smooth="no"/>
      <point x="496" y="614" type="line" smooth="no"/>
      <point x="700" y="0" type="line" smooth="no"/>
      <point x="496" y="0" type="line" smooth="no"/>
      <point x="373" y="369" type="line" smooth="no"/>
      <point x="291" y="205" type="line" smooth="no"/>
      <point x="291" y="0" type="line" smooth="no"/>
      <point x="86" y="0" type="line" smooth="no"/>
      <point x="86" y="205" type="line" smooth="no"/>
    </contour>
  </outline>
</glyph>
<glyph name="l" format="1">
  <advance width="408"/>
  <unicode hex="006c"/>
  <outline>
    <contour>
      <point x="74" y="1434" type="line" smooth="no"/>
      <point x="279" y="1434" type="line" smooth="no"/>
      <point x="279" y="309" type="line" smooth="no"/>
      <point x="279" y="305" type="line" smooth="no"/>
      <point x="280.333" y="277.667"/>
      <point x="290.833" y="254.167"/>
      <point x="310.5" y="234.5" type="curve" smooth="yes"/>
      <point x="330.167" y="214.833"/>
      <point x="354.333" y="205"/>
      <point x="383" y="205" type="curve" smooth="no"/>
      <point x="383" y="0" type="line" smooth="no"/>
      <point x="298.333" y="-9.53674e-07"/>
      <point x="226" y="29.6667"/>
      <point x="166" y="89" type="curve" smooth="yes"/>
      <point x="106" y="148.333"/>
      <point x="75.3333" y="220.333"/>
      <point x="74" y="305" type="curve" smooth="no"/>
      <point x="74" y="309" type="line" smooth="no"/>
    </contour>
  </outline>
</glyph>
<glyph name="m" format="1">
  <advance width="1196"/>
  <unicode hex="006d"/>
  <outline>
    <contour>
      <point x="86" y="1024" type="line" smooth="no"/>
      <point x="291" y="1024" type="line" smooth="no"/>
      <point x="291" y="819" type="line" smooth="yes"/>
      <point x="291" y="824.333"/>
      <point x="291.333" y="831.833"/>
      <point x="292" y="841.5" type="curve" smooth="yes"/>
      <point x="292.667" y="851.167"/>
      <point x="296.667" y="867.667"/>
      <point x="304" y="891" type="curve" smooth="yes"/>
      <point x="311.334" y="914.333"/>
      <point x="321.5" y="934.833"/>
      <point x="334.5" y="952.5" type="curve" smooth="yes"/>
      <point x="347.5" y="970.166"/>
      <point x="368" y="986.5"/>
      <point x="396" y="1001.5" type="curve" smooth="yes"/>
      <point x="424" y="1016.5"/>
      <point x="457.167" y="1024"/>
      <point x="495.5" y="1024" type="curve" smooth="yes"/>
      <point x="533.833" y="1023.99"/>
      <point x="567" y="1016.83"/>
      <point x="595" y="1002.5" type="curve" smooth="yes"/>
      <point x="623" y="988.167"/>
      <point x="643.5" y="971.167"/>
      <point x="656.5" y="951.5" type="curve" smooth="yes"/>
      <point x="669.5" y="931.833"/>
      <point x="679.667" y="912"/>
      <point x="687" y="892" type="curve" smooth="yes"/>
      <point x="694.333" y="872"/>
      <point x="698" y="854.667"/>
      <point x="698" y="840" type="curve" smooth="no"/>
      <point x="700" y="819" type="line" smooth="yes"/>
      <point x="699.999" y="824.333"/>
      <point x="700.332" y="831.833"/>
      <point x="701" y="841.5" type="curve" smooth="yes"/>
      <point x="701.68" y="851.167"/>
      <point x="705.847" y="867.667"/>
      <point x="713.5" y="891" type="curve" smooth="yes"/>
      <point x="721.168" y="914.333"/>
      <point x="731.501" y="934.833"/>
      <point x="744.5" y="952.5" type="curve" smooth="yes"/>
      <point x="757.5" y="970.166"/>
      <point x="778" y="986.5"/>
      <point x="806" y="1001.5" type="curve" smooth="yes"/>
      <point x="834" y="1016.5"/>
      <point x="867.167" y="1024"/>
      <point x="905.5" y="1024" type="curve" smooth="yes"/>
      <point x="943.833" y="1023.99"/>
      <point x="977" y="1016.83"/>
      <point x="1005" y="1002.5" type="curve" smooth="yes"/>
      <point x="1033" y="988.167"/>
      <point x="1053.33" y="971.167"/>
      <point x="1066" y="951.5" type="curve" smooth="yes"/>
      <point x="1078.67" y="931.833"/>
      <point x="1088.83" y="912"/>
      <point x="1096.5" y="892" type="curve" smooth="yes"/>
      <point x="1104.17" y="872"/>
      <point x="1108" y="854.667"/>
      <point x="1108" y="840" type="curve" smooth="no"/>
      <point x="1110" y="819" type="line" smooth="no"/>
      <point x="1110" y="719" type="line" smooth="no"/>
      <point x="1110" y="0" type="line" smooth="no"/>
      <point x="905" y="0" type="line" smooth="no"/>
      <point x="905" y="717" type="line" smooth="yes"/>
      <point x="905" y="719.672"/>
      <point x="904.667" y="723.338"/>
      <point x="904" y="728" type="curve" smooth="yes"/>
      <point x="903.333" y="732.672"/>
      <point x="901.333" y="740.838"/>
      <point x="898" y="752.5" type="curve" smooth="yes"/>
      <point x="894.66" y="764.171"/>
      <point x="889.827" y="774.504"/>
      <point x="883.5" y="783.5" type="curve" smooth="yes"/>
      <point x="877.165" y="792.5"/>
      <point x="866.832" y="800.667"/>
      <point x="852.5" y="808" type="curve" smooth="yes"/>
      <point x="838.167" y="815.333"/>
      <point x="821.667" y="819"/>
      <point x="803" y="819" type="curve" smooth="yes"/>
      <point x="782.333" y="819"/>
      <point x="764.5" y="815"/>
      <point x="749.5" y="807" type="curve" smooth="yes"/>
      <point x="734.5" y="798.998"/>
      <point x="724" y="788.832"/>
      <point x="718" y="776.5" type="curve" smooth="yes"/>
      <point x="712" y="764.164"/>
      <point x="707.5" y="753.83"/>
      <point x="704.5" y="745.5" type="curve" smooth="yes"/>
      <point x="701.5" y="737.164"/>
      <point x="700" y="728.997"/>
      <point x="700" y="721" type="curve" smooth="yes"/>
      <point x="700" y="719" type="line" smooth="no"/>
      <point x="700" y="0" type="line" smooth="no"/>
      <point x="496" y="0" type="line" smooth="no"/>
      <point x="496" y="717" type="line" smooth="yes"/>
      <point x="495.985" y="719.672"/>
      <point x="495.652" y="723.338"/>
      <point x="495" y="728" type="curve" smooth="yes"/>
      <point x="494.325" y="732.672"/>
      <point x="492.159" y="740.838"/>
      <point x="488.5" y="752.5" type="curve" smooth="yes"/>
      <point x="484.833" y="764.171"/>
      <point x="480" y="774.504"/>
      <point x="474" y="783.5" type="curve" smooth="yes"/>
      <point x="468" y="792.5"/>
      <point x="457.833" y="800.667"/>
      <point x="443.5" y="808" type="curve" smooth="yes"/>
      <point x="429.167" y="815.333"/>
      <point x="412.333" y="819"/>
      <point x="393" y="819" type="curve" smooth="yes"/>
      <point x="372.333" y="819"/>
      <point x="354.5" y="815"/>
      <point x="339.5" y="807" type="curve" smooth="yes"/>
      <point x="324.5" y="798.998"/>
      <point x="314" y="788.832"/>
      <point x="308" y="776.5" type="curve" smooth="yes"/>
      <point x="301.999" y="764.164"/>
      <point x="297.666" y="753.83"/>
      <point x="295" y="745.5" type="curve" smooth="yes"/>
      <point x="292.327" y="737.164"/>
      <point x="290.993" y="728.997"/>
      <point x="291" y="721" type="curve" smooth="yes"/>
      <point x="291" y="0" type="line" smooth="no"/>
      <point x="86" y="0" type="line" smooth="no"/>
    </contour>
  </outline>
</glyph>
<glyph name="n" format="1">
  <advance width="786"/>
  <unicode hex="006e"/>
  <outline>
    <contour>
      <point x="86" y="1024" type="line" smooth="no"/>
      <point x="291" y="1024" type="line" smooth="no"/>
      <point x="291" y="819" type="line" smooth="yes"/>
      <point x="291" y="824.333"/>
      <point x="291.333" y="831.833"/>
      <point x="292" y="841.5" type="curve" smooth="yes"/>
      <point x="292.667" y="851.167"/>
      <point x="296.667" y="867.667"/>
      <point x="304" y="891" type="curve" smooth="yes"/>
      <point x="311.334" y="914.333"/>
      <point x="321.5" y="934.833"/>
      <point x="334.5" y="952.5" type="curve" smooth="yes"/>
      <point x="347.5" y="970.166"/>
      <point x="368" y="986.5"/>
      <point x="396" y="1001.5" type="curve" smooth="yes"/>
      <point x="424" y="1016.5"/>
      <point x="457.167" y="1024"/>
      <point x="495.5" y="1024" type="curve" smooth="yes"/>
      <point x="533.833" y="1023.99"/>
      <point x="567" y="1016.83"/>
      <point x="595" y="1002.5" type="curve" smooth="yes"/>
      <point x="623" y="988.167"/>
      <point x="643.5" y="971.167"/>
      <point x="656.5" y="951.5" type="curve" smooth="yes"/>
      <point x="669.5" y="931.833"/>
      <point x="679.667" y="912"/>
      <point x="687" y="892" type="curve" smooth="yes"/>
      <point x="694.333" y="872"/>
      <point x="698" y="854.667"/>
      <point x="698" y="840" type="curve" smooth="no"/>
      <point x="700" y="819" type="line" smooth="no"/>
      <point x="700" y="719" type="line" smooth="no"/>
      <point x="700" y="717" type="line" smooth="no"/>
      <point x="700" y="0" type="line" smooth="no"/>
      <point x="496" y="0" type="line" smooth="no"/>
      <point x="496" y="717" type="line" smooth="no"/>
      <point x="496" y="719" type="line" smooth="yes"/>
      <point x="496" y="724.333"/>
      <point x="494.833" y="730.833"/>
      <point x="492.5" y="738.5" type="curve" smooth="yes"/>
      <point x="490.167" y="746.167"/>
      <point x="486.333" y="757.167"/>
      <point x="481" y="771.5" type="curve" smooth="yes"/>
      <point x="475.667" y="785.833"/>
      <point x="465.5" y="797.333"/>
      <point x="450.5" y="806" type="curve" smooth="yes"/>
      <point x="435.5" y="814.675"/>
      <point x="416.333" y="819.009"/>
      <point x="393" y="819" type="curve" smooth="yes"/>
      <point x="372.333" y="819"/>
      <point x="354.5" y="815"/>
      <point x="339.5" y="807" type="curve" smooth="yes"/>
      <point x="324.5" y="798.998"/>
      <point x="314" y="788.832"/>
      <point x="308" y="776.5" type="curve" smooth="yes"/>
      <point x="301.999" y="764.164"/>
      <point x="297.666" y="753.83"/>
      <point x="295" y="745.5" type="curve" smooth="yes"/>
      <point x="292.327" y="737.164"/>
      <point x="290.993" y="728.997"/>
      <point x="291" y="721" type="curve" smooth="yes"/>
      <point x="291" y="0" type="line" smooth="no"/>
      <point x="86" y="0" type="line" smooth="no"/>
    </contour>
  </outline>
</glyph>
<glyph name="p" format="1">
  <advance width="786"/>
  <unicode hex="0070"/>
  <outline>
    <contour>
      <point x="86" y="1024" type="line" smooth="no"/>
      <point x="291" y="1024" type="line" smooth="no"/>
      <point x="291" y="819" type="line" smooth="yes"/>
      <point x="291" y="824.333"/>
      <point x="291.333" y="831.833"/>
      <point x="292" y="841.5" type="curve" smooth="yes"/>
      <point x="292.667" y="851.167"/>
      <point x="296.667" y="867.667"/>
      <point x="304" y="891" type="curve" smooth="yes"/>
      <point x="311.334" y="914.333"/>
      <point x="321.5" y="934.833"/>
      <point x="334.5" y="952.5" type="curve" smooth="yes"/>
      <point x="347.5" y="970.166"/>
      <point x="368" y="986.5"/>
      <point x="396" y="1001.5" type="curve" smooth="yes"/>
      <point x="424" y="1016.5"/>
      <point x="457.167" y="1024"/>
      <point x="495.5" y="1024" type="curve" smooth="yes"/>
      <point x="533.833" y="1023.99"/>
      <point x="567" y="1016.83"/>
      <point x="595" y="1002.5" type="curve" smooth="yes"/>
      <point x="623" y="988.167"/>
      <point x="643.5" y="971.167"/>
      <point x="656.5" y="951.5" type="curve" smooth="yes"/>
      <point x="669.5" y="931.833"/>
      <point x="679.667" y="912"/>
      <point x="687" y="892" type="curve" smooth="yes"/>
      <point x="694.333" y="872"/>
      <point x="698" y="854.667"/>
      <point x="698" y="840" type="curve" smooth="no"/>
      <point x="700" y="819" type="line" smooth="no"/>
      <point x="700" y="719" type="line" smooth="no"/>
      <point x="700" y="307" type="line" smooth="no"/>
      <point x="700" y="205" type="line" smooth="yes"/>
      <point x="700" y="199.667"/>
      <point x="699.667" y="192.167"/>
      <point x="699" y="182.5" type="curve" smooth="yes"/>
      <point x="698.333" y="172.833"/>
      <point x="694.333" y="156.333"/>
      <point x="687" y="133" type="curve" smooth="yes"/>
      <point x="679.664" y="109.667"/>
      <point x="669.498" y="89.1667"/>
      <point x="656.5" y="71.5" type="curve" smooth="yes"/>
      <point x="643.5" y="53.8333"/>
      <point x="623" y="37.5"/>
      <point x="595" y="22.5" type="curve" smooth="yes"/>
      <point x="567" y="7.5"/>
      <point x="533.833" y="0"/>
      <point x="495.5" y="0" type="curve" smooth="yes"/>
      <point x="457.167" y="-2.38419e-07"/>
      <point x="424" y="7.16667"/>
      <point x="396" y="21.5" type="curve" smooth="yes"/>
      <point x="368" y="35.8333"/>
      <point x="347.5" y="52.8333"/>
      <point x="334.5" y="72.5" type="curve" smooth="yes"/>
      <point x="321.5" y="92.1667"/>
      <point x="311.333" y="112"/>
      <point x="304" y="132" type="curve" smooth="yes"/>
      <point x="296.667" y="152"/>
      <point x="293" y="169.333"/>
      <point x="293" y="184" type="curve" smooth="no"/>
      <point x="291" y="205" type="line" smooth="no"/>
      <point x="291" y="-410" type="line" smooth="no"/>
      <point x="86" y="-410" type="line" smooth="no"/>
    </contour>
    <contour>
      <point x="393" y="819" type="curve" smooth="yes"/>
      <point x="372.333" y="819"/>
      <point x="354.5" y="815"/>
      <point x="339.5" y="807" type="curve" smooth="yes"/>
      <point x="324.5" y="798.998"/>
      <point x="314" y="788.832"/>
      <point x="308" y="776.5" type="curve" smooth="yes"/>
      <point x="301.999" y="764.164"/>
      <point x="297.666" y="753.83"/>
      <point x="295" y="745.5" type="curve" smooth="yes"/>
      <point x="292.327" y="737.164"/>
      <point x="290.993" y="728.997"/>
      <point x="291" y="721" type="curve" smooth="yes"/>
      <point x="291" y="303" type="line" smooth="yes"/>
      <point x="291" y="295"/>
      <point x="292.333" y="286.833"/>
      <point x="295" y="278.5" type="curve" smooth="yes"/>
      <point x="297.667" y="270.167"/>
      <point x="302" y="259.833"/>
      <point x="308" y="247.5" type="curve" smooth="yes"/>
      <point x="314" y="235.167"/>
      <point x="324.5" y="225"/>
      <point x="339.5" y="217" type="curve" smooth="yes"/>
      <point x="354.5" y="209"/>
      <point x="372.333" y="205"/>
      <point x="393" y="205" type="curve" smooth="yes"/>
      <point x="413.667" y="205"/>
      <point x="431.167" y="208.667"/>
      <point x="445.5" y="216" type="curve" smooth="yes"/>
      <point x="459.833" y="223.333"/>
      <point x="470.333" y="233.167"/>
      <point x="477" y="245.5" type="curve" smooth="yes"/>
      <point x="483.667" y="257.833"/>
      <point x="488.5" y="268.5"/>
      <point x="491.5" y="277.5" type="curve" smooth="yes"/>
      <point x="494.5" y="286.5"/>
      <point x="496" y="294.333"/>
      <point x="496" y="301" type="curve" smooth="yes"/>
      <point x="496" y="717" type="line" smooth="yes"/>
      <point x="495.985" y="719.672"/>
      <point x="495.652" y="723.338"/>
      <point x="495" y="728" type="curve" smooth="yes"/>
      <point x="494.325" y="732.672"/>
      <point x="492.159" y="740.838"/>
      <point x="488.5" y="752.5" type="curve" smooth="yes"/>
      <point x="484.833" y="764.171"/>
      <point x="480" y="774.504"/>
      <point x="474" y="783.5" type="curve" smooth="yes"/>
      <point x="468" y="792.5"/>
      <point x="457.833" y="800.667"/>
      <point x="443.5" y="808" type="curve" smooth="yes"/>
      <point x="429.167" y="815.333"/>
      <point x="412.333" y="819"/>
    </contour>
  </outline>
</glyph>
<glyph name="s" format="1">
  <advance width="720"/>
  <unicode hex="0073"/>
  <outline>
    <contour>
      <point x="365" y="1024" type="curve" smooth="yes"/>
      <point x="449.667" y="1024"/>
      <point x="522" y="994"/>
      <point x="582" y="934" type="curve" smooth="yes"/>
      <point x="642" y="874"/>
      <point x="672" y="801.667"/>
      <point x="672" y="717" type="curve" smooth="no"/>
      <point x="467" y="717" type="line" smooth="no"/>
      <point x="466.999" y="745.668"/>
      <point x="457.166" y="769.835"/>
      <point x="437.5" y="789.5" type="curve" smooth="yes"/>
      <point x="417.833" y="809.169"/>
      <point x="393.666" y="819.002"/>
      <point x="365" y="819" type="curve" smooth="yes"/>
      <point x="336.333" y="819"/>
      <point x="312" y="809.167"/>
      <point x="292" y="789.5" type="curve" smooth="yes"/>
      <point x="272" y="769.833"/>
      <point x="262" y="745.667"/>
      <point x="262" y="717" type="curve" smooth="no"/>
      <point x="260.667" y="688.333"/>
      <point x="270.333" y="664"/>
      <point x="291" y="644" type="curve" smooth="yes"/>
      <point x="311.667" y="624"/>
      <point x="335.333" y="614"/>
      <point x="362" y="614" type="curve" smooth="yes"/>
      <point x="445.333" y="612.667"/>
      <point x="516.5" y="582"/>
      <point x="575.5" y="522" type="curve" smooth="yes"/>
      <point x="634.5" y="462"/>
      <point x="664" y="390.333"/>
      <point x="664" y="307" type="curve" smooth="yes"/>
      <point x="663.999" y="222.333"/>
      <point x="633.833" y="150"/>
      <point x="573.5" y="90" type="curve" smooth="yes"/>
      <point x="513.167" y="30"/>
      <point x="440.667" y="0"/>
      <point x="356" y="0" type="curve" smooth="yes"/>
      <point x="271.333" y="0"/>
      <point x="199" y="30"/>
      <point x="139" y="90" type="curve" smooth="yes"/>
      <point x="79" y="150"/>
      <point x="49" y="222.333"/>
      <point x="49" y="307" type="curve" smooth="no"/>
      <point x="254" y="307" type="line" smooth="no"/>
      <point x="254" y="278.333"/>
      <point x="263.833" y="254.167"/>
      <point x="283.5" y="234.5" type="curve" smooth="yes"/>
      <point x="303.167" y="214.833"/>
      <point x="327.333" y="205"/>
      <point x="356" y="205" type="curve" smooth="yes"/>
      <point x="384.667" y="205"/>
      <point x="409" y="214.833"/>
      <point x="429" y="234.5" type="curve" smooth="yes"/>
      <point x="449" y="254.167"/>
      <point x="459" y="278.333"/>
      <point x="459" y="307" type="curve" smooth="yes"/>
      <point x="459" y="335.667"/>
      <point x="448.667" y="360"/>
      <point x="428" y="380" type="curve" smooth="yes"/>
      <point x="407.333" y="400"/>
      <point x="383.333" y="410"/>
      <point x="356" y="410" type="curve" smooth="yes"/>
      <point x="272.667" y="411.334"/>
      <point x="201.667" y="442"/>
      <point x="143" y="502" type="curve" smooth="yes"/>
      <point x="84.3333" y="562"/>
      <point x="55" y="633.667"/>
      <point x="55" y="717" type="curve" smooth="no"/>
      <point x="56.3333" y="801.667"/>
      <point x="87.1667" y="874"/>
      <point x="147.5" y="934" type="curve" smooth="yes"/>
      <point x="207.833" y="994"/>
      <point x="280.333" y="1024"/>
    </contour>
  </outline>
</glyph>
<glyph name="t" format="1">
  <advance width="432"/>
  <unicode hex="0074"/>
  <outline>
    <contour>
      <point x="113" y="1329" type="line" smooth="no"/>
      <point x="317" y="1329" type="line" smooth="no"/>
      <point x="317" y="1022" type="line" smooth="no"/>
      <point x="420" y="1022" type="line" smooth="no"/>
      <point x="420" y="817" type="line" smooth="no"/>
      <point x="317" y="817" type="line" smooth="no"/>
      <point x="317" y="305" type="line" smooth="yes"/>
      <point x="317" y="277.667"/>
      <point x="327" y="253.833"/>
      <point x="347" y="233.5" type="curve" smooth="yes"/>
      <point x="367" y="213.167"/>
      <point x="391.333" y="203"/>
      <point x="420" y="203" type="curve" smooth="no"/>
      <point x="420" y="-2" type="line" smooth="no"/>
      <point x="335.333" y="-2"/>
      <point x="263" y="28"/>
      <point x="203" y="88" type="curve" smooth="yes"/>
      <point x="143" y="148"/>
      <point x="113" y="220.333"/>
      <point x="113" y="305" type="curve" smooth="yes"/>
      <point x="113" y="817" type="line" smooth="no"/>
      <point x="10" y="817" type="line" smooth="no"/>
      <point x="10" y="1022" type="line" smooth="no"/>
      <point x="113" y="1022" type="line" smooth="no"/>
    </contour>
  </outline>
</glyph>
<glyph name="u" format="1">
  <advance width="786"/>
  <unicode hex="0075"/>
  <outline>
    <contour>
      <point x="86" y="1024" type="line" smooth="no"/>
      <point x="291" y="1024" type="line" smooth="no"/>
      <point x="291" y="307" type="line" smooth="yes"/>
      <point x="291" y="304.331"/>
      <point x="291.333" y="300.664"/>
      <point x="292" y="296" type="curve" smooth="yes"/>
      <point x="292.667" y="291.332"/>
      <point x="294.667" y="283.166"/>
      <point x="298" y="271.5" type="curve" smooth="yes"/>
      <point x="301.335" y="259.833"/>
      <point x="306.168" y="249.5"/>
      <point x="312.5" y="240.5" type="curve" smooth="yes"/>
      <point x="318.834" y="231.5"/>
      <point x="329.167" y="223.333"/>
      <point x="343.5" y="216" type="curve" smooth="yes"/>
      <point x="357.833" y="208.666"/>
      <point x="374.333" y="205"/>
      <point x="393" y="205" type="curve" smooth="yes"/>
      <point x="413.667" y="205"/>
      <point x="431.5" y="209"/>
      <point x="446.5" y="217" type="curve" smooth="yes"/>
      <point x="461.5" y="225"/>
      <point x="472" y="235.167"/>
      <point x="478" y="247.5" type="curve" smooth="yes"/>
      <point x="484" y="259.834"/>
      <point x="488.5" y="270.167"/>
      <point x="491.5" y="278.5" type="curve" smooth="yes"/>
      <point x="494.5" y="286.834"/>
      <point x="496" y="295.001"/>
      <point x="496" y="303" type="curve" smooth="yes"/>
      <point x="496" y="1024" type="line" smooth="no"/>
      <point x="700" y="1024" type="line" smooth="no"/>
      <point x="700" y="0" type="line" smooth="no"/>
      <point x="496" y="0" type="line" smooth="no"/>
      <point x="496" y="205" type="line" smooth="yes"/>
      <point x="495.985" y="199.667"/>
      <point x="495.652" y="192.167"/>
      <point x="495" y="182.5" type="curve" smooth="yes"/>
      <point x="494.331" y="172.833"/>
      <point x="490.164" y="156.333"/>
      <point x="482.5" y="133" type="curve" smooth="yes"/>
      <point x="474.833" y="109.667"/>
      <point x="464.499" y="89.1667"/>
      <point x="451.5" y="71.5" type="curve" smooth="yes"/>
      <point x="438.5" y="53.8333"/>
      <point x="418" y="37.5"/>
      <point x="390" y="22.5" type="curve" smooth="yes"/>
      <point x="362" y="7.5"/>
      <point x="328.833" y="0"/>
      <point x="290.5" y="0" type="curve" smooth="yes"/>
      <point x="252.167" y="-2.38419e-07"/>
      <point x="219.167" y="7.16667"/>
      <point x="191.5" y="21.5" type="curve" smooth="yes"/>
      <point x="163.833" y="35.8333"/>
      <point x="143.5" y="52.8333"/>
      <point x="130.5" y="72.5" type="curve" smooth="yes"/>
      <point x="117.5" y="92.1667"/>
      <point x="107.167" y="112"/>
      <point x="99.5" y="132" type="curve" smooth="yes"/>
      <point x="91.8334" y="152"/>
      <point x="88" y="169.333"/>
      <point x="88" y="184" type="curve" smooth="no"/>
      <point x="86" y="205" type="line" smooth="no"/>
      <point x="86" y="305" type="line" smooth="no"/>
    </contour>
  </outline>
</glyph>
<glyph name="v" format="1">
  <advance width="610"/>
  <unicode hex="0076"/>
  <outline>
    <contour>
      <point x="-2" y="1024" type="line" smooth="no"/>
      <point x="203" y="1024" type="line" smooth="no"/>
      <point x="305" y="512" type="line" smooth="no"/>
      <point x="408" y="1024" type="line" smooth="no"/>
      <point x="612" y="1024" type="line" smooth="no"/>
      <point x="408" y="0" type="line" smooth="no"/>
      <point x="203" y="0" type="line" smooth="no"/>
    </contour>
  </outline>
</glyph>
<glyph name="w" format="1">
  <advance width="1028"/>
  <unicode hex="0077"/>
  <outline>
    <contour>
      <point x="2" y="1024" type="line" smooth="no"/>
      <point x="207" y="1024" type="line" smooth="no"/>
      <point x="309" y="512" type="line" smooth="no"/>
      <point x="412" y="1024" type="line" smooth="no"/>
      <point x="616" y="1024" type="line" smooth="no"/>
      <point x="719" y="512" type="line" smooth="no"/>
      <point x="821" y="1024" type="line" smooth="no"/>
      <point x="1026" y="1024" type="line" smooth="no"/>
      <point x="821" y="0" type="line" smooth="no"/>
      <point x="616" y="0" type="line" smooth="no"/>
      <point x="514" y="512" type="line" smooth="no"/>
      <point x="412" y="0" type="line" smooth="no"/>
      <point x="207" y="0" type="line" smooth="no"/>
    </contour>
  </outline>
</glyph>
<glyph name="x" format="1">
  <advance width="569"/>
  <unicode hex="0078"/>
  <outline>
    <contour>
      <point x="-23" y="1024" type="line" smooth="no"/>
      <point x="182" y="1024" type="line" smooth="no"/>
      <point x="285" y="768" type="line" smooth="no"/>
      <point x="387" y="1024" type="line" smooth="no"/>
      <point x="592" y="1024" type="line" smooth="no"/>
      <point x="387" y="512" type="line" smooth="no"/>
      <point x="592" y="0" type="line" smooth="no"/>
      <point x="387" y="0" type="line" smooth="no"/>
      <point x="285" y="256" type="line" smooth="no"/>
      <point x="182" y="0" type="line" smooth="no"/>
      <point x="-23" y="0" type="line" smooth="no"/>
      <point x="182" y="512" type="line" smooth="no"/>
    </contour>
  </outline>
</glyph>
<glyph name="y" format="1">
  <advance width="610"/>
  <unicode hex="0079"/>
  <outline>
    <contour>
      <point x="-2" y="1024" type="line" smooth="no"/>
      <point x="203" y="1024" type="line" smooth="no"/>
      <point x="305" y="512" type="line" smooth="no"/>
      <point x="408" y="1024" type="line" smooth="no"/>
      <point x="612" y="1024" type="line" smooth="no"/>
      <point x="408" y="0" type="line" smooth="no"/>
      <point x="408" y="-84.6667"/>
      <point x="377.833" y="-157"/>
      <point x="317.5" y="-217" type="curve" smooth="yes"/>
      <point x="257.167" y="-277"/>
      <point x="184.667" y="-307"/>
      <point x="100" y="-307" type="curve" smooth="no"/>
      <point x="100" y="-102" type="line" smooth="no"/>
      <point x="128.667" y="-102"/>
      <point x="153" y="-92.1667"/>
      <point x="173" y="-72.5" type="curve" smooth="yes"/>
      <point x="193" y="-52.8333"/>
      <point x="203" y="-28.6667"/>
      <point x="203" y="0" type="curve" smooth="no"/>
    </contour>
  </outline>
</glyph>
<glyph name="z" format="1">
  <advance width="684"/>
  <unicode hex="007a"/>
  <outline>
    <contour>
      <point x="35" y="1024" type="line" smooth="no"/>
      <point x="649" y="1024" type="line" smooth="no"/>
      <point x="649" y="819" type="line" smooth="no"/>
      <point x="240" y="205" type="line" smooth="no"/>
      <point x="649" y="205" type="line" smooth="no"/>
      <point x="649" y="0" type="line" smooth="no"/>
      <point x="35" y="0" type="line" smooth="no"/>
      <point x="35" y="205" type="line" smooth="no"/>
      <point x="444" y="819" type="line" smooth="no"/>
      <point x="35" y="819" type="line" smooth="no"/>
    </contour>
  </outline>
</glyph>
<glyph name="braceleft" format="1">
  <advance width="519"/>
  <unicode hex="007b"/>
  <outline>
    <contour>
      <point x="487" y="-203" type="curve" smooth="no"/>
      <point x="503" y="-203" type="line" smooth="no"/>
      <point x="503" y="5" type="line" smooth="no"/>
      <point x="474.333" y="5"/>
      <point x="449.833" y="15.1667"/>
      <point x="429.5" y="35.5" type="curve" smooth="yes"/>
      <point x="409.167" y="55.8333"/>
      <point x="399" y="80.3333"/>
      <point x="399" y="109" type="curve" smooth="yes"/>
      <point x="399" y="408" type="line" smooth="no"/>
      <point x="399" y="1333" type="line" smooth="yes"/>
      <point x="399.001" y="1361.67"/>
      <point x="409.167" y="1386.17"/>
      <point x="429.5" y="1406.5" type="curve" smooth="yes"/>
      <point x="449.833" y="1426.84"/>
      <point x="474.333" y="1437.01"/>
      <point x="503" y="1437" type="curve" smooth="no"/>
      <point x="503" y="1645" type="line" smooth="no"/>
      <point x="417" y="1645"/>
      <point x="348.833" y="1614.5"/>
      <point x="298.5" y="1553.5" type="curve" smooth="yes"/>
      <point x="248.167" y="1492.5"/>
      <point x="223" y="1419"/>
      <point x="223" y="1333" type="curve" smooth="yes"/>
      <point x="223" y="963" type="line" smooth="yes"/>
      <point x="223" y="934.333"/>
      <point x="212.833" y="909.833"/>
      <point x="192.5" y="889.5" type="curve" smooth="yes"/>
      <point x="172.167" y="869.163"/>
      <point x="147.667" y="858.997"/>
      <point x="119" y="859" type="curve" smooth="no"/>
      <point x="119" y="651" type="line" smooth="no"/>
      <point x="147.667" y="651"/>
      <point x="172.167" y="641"/>
      <point x="192.5" y="621" type="curve" smooth="yes"/>
      <point x="212.833" y="601"/>
      <point x="223" y="576.667"/>
      <point x="223" y="548" type="curve" smooth="yes"/>
      <point x="223" y="109" type="line" smooth="yes"/>
      <point x="223" y="25.6667"/>
      <point x="246.333" y="-46.1667"/>
      <point x="293" y="-106.5" type="curve" smooth="yes"/>
      <point x="339.667" y="-166.833"/>
      <point x="404.333" y="-199"/>
    </contour>
  </outline>
</glyph>
<glyph name="bar" format="1">
  <advance width="413"/>
  <unicode hex="007c"/>
  <outline>
    <contour>
      <point x="309" y="-202" type="line" smooth="no"/>
      <point x="104" y="-202" type="line" smooth="no"/>
      <point x="104" y="1639" type="line" smooth="no"/>
      <point x="309" y="1639" type="line" smooth="no"/>
    </contour>
  </outline>
</glyph>
<glyph name="braceright" format="1">
  <advance width="519"/>
  <unicode hex="007d"/>
  <outline>
    <contour>
      <point x="135" y="-203" type="curve" smooth="no"/>
      <point x="119" y="-203" type="line" smooth="no"/>
      <point x="119" y="5" type="line" smooth="no"/>
      <point x="147.667" y="5"/>
      <point x="172.167" y="15.1667"/>
      <point x="192.5" y="35.5" type="curve" smooth="yes"/>
      <point x="212.833" y="55.8333"/>
      <point x="223" y="80.3333"/>
      <point x="223" y="109" type="curve" smooth="yes"/>
      <point x="223" y="408" type="line" smooth="no"/>
      <point x="223" y="1333" type="line" smooth="yes"/>
      <point x="223" y="1361.67"/>
      <point x="212.833" y="1386.17"/>
      <point x="192.5" y="1406.5" type="curve" smooth="yes"/>
      <point x="172.167" y="1426.84"/>
      <point x="147.667" y="1437.01"/>
      <point x="119" y="1437" type="curve" smooth="no"/>
      <point x="119" y="1645" type="line" smooth="no"/>
      <point x="205" y="1645"/>
      <point x="273.167" y="1614.5"/>
      <point x="323.5" y="1553.5" type="curve" smooth="yes"/>
      <point x="373.834" y="1492.5"/>
      <point x="399" y="1419"/>
      <point x="399" y="1333" type="curve" smooth="yes"/>
      <point x="399" y="963" type="line" smooth="yes"/>
      <point x="399.001" y="934.333"/>
      <point x="409.167" y="909.833"/>
      <point x="429.5" y="889.5" type="curve" smooth="yes"/>
      <point x="449.833" y="869.163"/>
      <point x="474.333" y="858.997"/>
      <point x="503" y="859" type="curve" smooth="no"/>
      <point x="503" y="651" type="line" smooth="no"/>
      <point x="474.333" y="651"/>
      <point x="449.833" y="641"/>
      <point x="429.5" y="621" type="curve" smooth="yes"/>
      <point x="409.167" y="601"/>
      <point x="399" y="576.667"/>
      <point x="399" y="548" type="curve" smooth="yes"/>
      <point x="399" y="109" type="line" smooth="yes"/>
      <point x="399" y="25.6667"/>
      <point x="375.666" y="-46.1667"/>
      <point x="329" y="-106.5" type="curve" smooth="yes"/>
      <point x="282.333" y="-166.833"/>
      <point x="217.667" y="-199"/>
    </contour>
  </outline>
</glyph>
<glyph name="asciitilde" format="1">
  <advance width="1013"/>
  <unicode hex="007e"/>
  <outline>
    <contour>
      <point x="459" y="508" type="curve" smooth="yes"/>
      <point x="533.667" y="547.333"/>
      <point x="611.333" y="554.667"/>
      <point x="692" y="530" type="curve" smooth="yes"/>
      <point x="772.667" y="505.333"/>
      <point x="832.667" y="455.666"/>
      <point x="872" y="381" type="curve" smooth="no"/>
      <point x="692" y="285" type="line" smooth="no"/>
      <point x="678.667" y="309.667"/>
      <point x="658.667" y="326.167"/>
      <point x="632" y="334.5" type="curve" smooth="yes"/>
      <point x="605.333" y="342.833"/>
      <point x="579.333" y="340.333"/>
      <point x="554" y="327" type="curve" smooth="yes"/>
      <point x="479.333" y="287.667"/>
      <point x="401.666" y="280.333"/>
      <point x="321" y="305" type="curve" smooth="yes"/>
      <point x="240.333" y="329.667"/>
      <point x="180.333" y="379.333"/>
      <point x="141" y="454" type="curve" smooth="no"/>
      <point x="321" y="550" type="line" smooth="no"/>
      <point x="334.334" y="525.333"/>
      <point x="354.5" y="508.833"/>
      <point x="381.5" y="500.5" type="curve" smooth="yes"/>
      <point x="408.5" y="492.167"/>
      <point x="434.333" y="494.667"/>
    </contour>
  </outline>
</glyph>
<glyph name="questiondown" format="1">
  <advance width="745"/>
  <unicode hex="00bf"/>
  <outline>
    <contour>
      <point x="373" y="0" type="curve" smooth="yes"/>
      <point x="288.333" y="0"/>
      <point x="216" y="30"/>
      <point x="156" y="90" type="curve" smooth="yes"/>
      <point x="96" y="150"/>
      <point x="66" y="222.333"/>
      <point x="66" y="307" type="curve" smooth="yes"/>
      <point x="66" y="461" type="line" smooth="yes"/>
      <point x="66" y="514.333"/>
      <point x="80.3333" y="571.667"/>
      <point x="109" y="633" type="curve" smooth="yes"/>
      <point x="121" y="659"/>
      <point x="144.333" y="697.833"/>
      <point x="179" y="749.5" type="curve" smooth="yes"/>
      <point x="213.667" y="801.168"/>
      <point x="236" y="841.335"/>
      <point x="246" y="870" type="curve" smooth="no"/>
      <point x="252.667" y="893.333"/>
      <point x="258" y="917.667"/>
      <point x="262" y="943" type="curve" smooth="yes"/>
      <point x="266.002" y="968.333"/>
      <point x="268.668" y="988.667"/>
      <point x="270" y="1004" type="curve" smooth="no"/>
      <point x="270" y="1024" type="line" smooth="no"/>
      <point x="270" y="1126" type="line" smooth="no"/>
      <point x="475" y="1126" type="line" smooth="no"/>
      <point x="475" y="973" type="line" smooth="yes"/>
      <point x="475" y="919.666"/>
      <point x="460.666" y="862.333"/>
      <point x="432" y="801" type="curve" smooth="yes"/>
      <point x="420" y="775"/>
      <point x="396.5" y="736"/>
      <point x="361.5" y="684" type="curve" smooth="yes"/>
      <point x="326.5" y="632"/>
      <point x="304.333" y="591.667"/>
      <point x="295" y="563" type="curve" smooth="no"/>
      <point x="288.333" y="539.667"/>
      <point x="282.833" y="515.5"/>
      <point x="278.5" y="490.5" type="curve" smooth="yes"/>
      <point x="274.167" y="465.5"/>
      <point x="271.333" y="445.333"/>
      <point x="270" y="430" type="curve" smooth="no"/>
      <point x="270" y="410" type="line" smooth="no"/>
      <point x="270" y="307" type="line" smooth="yes"/>
      <point x="270" y="278.333"/>
      <point x="280" y="254.167"/>
      <point x="300" y="234.5" type="curve" smooth="yes"/>
      <point x="320" y="214.833"/>
      <point x="344.333" y="205"/>
      <point x="373" y="205" type="curve" smooth="yes"/>
      <point x="401.667" y="205"/>
      <point x="425.833" y="214.833"/>
      <point x="445.5" y="234.5" type="curve" smooth="yes"/>
      <point x="465.167" y="254.167"/>
      <point x="475" y="278.333"/>
      <point x="475" y="307" type="curve" smooth="yes"/>
      <point x="475" y="410" type="line" smooth="no"/>
      <point x="680" y="410" type="line" smooth="no"/>
      <point x="680" y="307" type="line" smooth="yes"/>
      <point x="680" y="222.333"/>
      <point x="650" y="150"/>
      <point x="590" y="90" type="curve" smooth="yes"/>
      <point x="530" y="30"/>
      <point x="457.667" y="0"/>
    </contour>
    <contour>
      <point x="475" y="1229" type="line" smooth="no"/>
      <point x="270" y="1229" type="line" smooth="no"/>
      <point x="270" y="1434" type="line" smooth="no"/>
      <point x="475" y="1434" type="line" smooth="no"/>
    </contour>
  </outline>
</glyph>
<glyph name="AE" format="1">
  <advance width="1267"/>
  <unicode hex="00c6"/>
  <outline>
    <contour>
      <point x="516" y="1432" type="line" smooth="no"/>
      <point x="1231" y="1432" type="line" smooth="no"/>
      <point x="1231" y="1229" type="line" smooth="no"/>
      <point x="821" y="1229" type="line" smooth="no"/>
      <point x="821" y="817" type="line" smooth="no"/>
      <point x="1128" y="817" type="line" smooth="no"/>
      <point x="1128" y="614" type="line" smooth="no"/>
      <point x="821" y="614" type="line" smooth="no"/>
      <point x="821" y="203" type="line" smooth="no"/>
      <point x="1231" y="203" type="line" smooth="no"/>
      <point x="1231" y="0" type="line" smooth="no"/>
      <point x="618" y="0" type="line" smooth="no"/>
      <point x="618" y="305" type="line" smooth="no"/>
      <point x="309" y="307" type="line" smooth="no"/>
      <point x="207" y="0" type="line" smooth="no"/>
      <point x="4" y="0" type="line" smooth="no"/>
    </contour>
    <contour>
      <point x="590" y="1126" type="line" smooth="no"/>
      <point x="385" y="510" type="line" smooth="no"/>
      <point x="618" y="510" type="line" smooth="no"/>
      <point x="618" y="1126" type="line" smooth="no"/>
    </contour>
  </outline>
</glyph>
<glyph name="Egrave" format="1">
  <advance width="749"/>
  <unicode hex="00c8"/>
  <outline>
    <component base="grave" xOffset="2" yOffset="325"/>
    <contour>
      <point x="98" y="0" type="line" smooth="no"/>
      <point x="98" y="1434" type="line" smooth="no"/>
      <point x="713" y="1434" type="line" smooth="no"/>
      <point x="713" y="1229" type="line" smooth="no"/>
      <point x="303" y="1229" type="line" smooth="no"/>
      <point x="303" y="819" type="line" smooth="no"/>
      <point x="610" y="819" type="line" smooth="no"/>
      <point x="610" y="614" type="line" smooth="no"/>
      <point x="303" y="614" type="line" smooth="no"/>
      <point x="303" y="205" type="line" smooth="no"/>
      <point x="713" y="205" type="line" smooth="no"/>
      <point x="713" y="0" type="line" smooth="no"/>
    </contour>
  </outline>
</glyph>
<glyph name="Edieresis" format="1">
  <advance width="749"/>
  <unicode hex="00cb"/>
  <outline>
    <component base="uni0308" xOffset="25" yOffset="412"/>
    <contour>
      <point x="98" y="0" type="line" smooth="no"/>
      <point x="98" y="1434" type="line" smooth="no"/>
      <point x="713" y="1434" type="line" smooth="no"/>
      <point x="713" y="1229" type="line" smooth="no"/>
      <point x="303" y="1229" type="line" smooth="no"/>
      <point x="303" y="819" type="line" smooth="no"/>
      <point x="610" y="819" type="line" smooth="no"/>
      <point x="610" y="614" type="line" smooth="no"/>
      <point x="303" y="614" type="line" smooth="no"/>
      <point x="303" y="205" type="line" smooth="no"/>
      <point x="713" y="205" type="line" smooth="no"/>
      <point x="713" y="0" type="line" smooth="no"/>
    </contour>
  </outline>
</glyph>
<glyph name="Igrave" format="1">
  <advance width="413"/>
  <unicode hex="00cc"/>
  <outline>
    <component base="grave" xOffset="-197" yOffset="394"/>
    <contour>
      <point x="309" y="0" type="line" smooth="no"/>
      <point x="104" y="0" type="line" smooth="no"/>
      <point x="104" y="1434" type="line" smooth="no"/>
      <point x="309" y="1434" type="line" smooth="no"/>
    </contour>
  </outline>
</glyph>
<glyph name="Icircumflex" format="1">
  <advance width="401"/>
  <unicode hex="00ce"/>
  <outline>
    <component base="asciicircum" xOffset="-150" yOffset="408"/>
    <contour>
      <point x="303" y="0" type="line" smooth="no"/>
      <point x="98" y="0" type="line" smooth="no"/>
      <point x="98" y="1434" type="line" smooth="no"/>
      <point x="303" y="1434" type="line" smooth="no"/>
    </contour>
  </outline>
</glyph>
<glyph name="Idieresis" format="1">
  <advance width="479"/>
  <unicode hex="00cf"/>
  <outline>
    <component base="uni0308" xOffset="-144" yOffset="412"/>
    <contour>
      <point x="137" y="1434" type="line" smooth="no"/>
      <point x="342" y="1434" type="line" smooth="no"/>
      <point x="342" y="0" type="line" smooth="no"/>
      <point x="137" y="0" type="line" smooth="no"/>
    </contour>
  </outline>
</glyph>
<glyph name="Ocircumflex" format="1">
  <advance width="786"/>
  <unicode hex="00d4"/>
  <outline>
    <component base="asciicircum" xOffset="48" yOffset="348"/>
    <contour>
      <point x="393" y="1434" type="curve" smooth="yes"/>
      <point x="477.667" y="1434"/>
      <point x="550" y="1403.83"/>
      <point x="610" y="1343.5" type="curve" smooth="yes"/>
      <point x="670" y="1283.17"/>
      <point x="700" y="1210.67"/>
      <point x="700" y="1126" type="curve" smooth="yes"/>
      <point x="700" y="307" type="line" smooth="yes"/>
      <point x="700" y="222.333"/>
      <point x="670" y="150"/>
      <point x="610" y="90" type="curve" smooth="yes"/>
      <point x="550" y="30"/>
      <point x="477.666" y="0"/>
      <point x="393" y="0" type="curve" smooth="yes"/>
      <point x="308.333" y="0"/>
      <point x="236" y="30"/>
      <point x="176" y="90" type="curve" smooth="yes"/>
      <point x="116" y="150"/>
      <point x="86" y="222.333"/>
      <point x="86" y="307" type="curve" smooth="yes"/>
      <point x="86" y="1126" type="line" smooth="yes"/>
      <point x="86" y="1210.67"/>
      <point x="116" y="1283.17"/>
      <point x="176" y="1343.5" type="curve" smooth="yes"/>
      <point x="236" y="1403.84"/>
      <point x="308.333" y="1434"/>
    </contour>
    <contour>
      <point x="393" y="1229" type="curve" smooth="yes"/>
      <point x="364.333" y="1229"/>
      <point x="340.166" y="1219"/>
      <point x="320.5" y="1199" type="curve" smooth="yes"/>
      <point x="300.833" y="1179"/>
      <point x="291" y="1154.67"/>
      <point x="291" y="1126" type="curve" smooth="yes"/>
      <point x="291" y="836" type="line" smooth="no"/>
      <point x="291" y="596" type="line" smooth="no"/>
      <point x="291" y="307" type="line" smooth="yes"/>
      <point x="291" y="278.333"/>
      <point x="300.833" y="254.167"/>
      <point x="320.5" y="234.5" type="curve" smooth="yes"/>
      <point x="340.167" y="214.833"/>
      <point x="364.333" y="205"/>
      <point x="393" y="205" type="curve" smooth="yes"/>
      <point x="421.667" y="205"/>
      <point x="446" y="214.833"/>
      <point x="466" y="234.5" type="curve" smooth="yes"/>
      <point x="486" y="254.167"/>
      <point x="496" y="278.333"/>
      <point x="496" y="307" type="curve" smooth="yes"/>
      <point x="496" y="596" type="line" smooth="no"/>
      <point x="496" y="836" type="line" smooth="no"/>
      <point x="496" y="1126" type="line" smooth="yes"/>
      <point x="496" y="1154.67"/>
      <point x="486" y="1179"/>
      <point x="466" y="1199" type="curve" smooth="yes"/>
      <point x="446" y="1219"/>
      <point x="421.666" y="1229"/>
    </contour>
  </outline>
</glyph>
<glyph name="Uacute" format="1">
  <advance width="811"/>
  <unicode hex="00da"/>
  <outline>
    <component base="grave" xScale="-1" xOffset="819.259" yOffset="330"/>
    <contour>
      <point x="98" y="1434" type="line" smooth="no"/>
      <point x="303" y="1434" type="line" smooth="no"/>
      <point x="303" y="307" type="line" smooth="yes"/>
      <point x="303" y="278.333"/>
      <point x="312.833" y="254.167"/>
      <point x="332.5" y="234.5" type="curve" smooth="yes"/>
      <point x="352.167" y="214.833"/>
      <point x="376.5" y="205"/>
      <point x="405.5" y="205" type="curve" smooth="yes"/>
      <point x="434.5" y="205"/>
      <point x="458.833" y="214.833"/>
      <point x="478.5" y="234.5" type="curve" smooth="yes"/>
      <point x="498.167" y="254.167"/>
      <point x="508" y="278.333"/>
      <point x="508" y="307" type="curve" smooth="yes"/>
      <point x="508" y="1434" type="line" smooth="no"/>
      <point x="713" y="1434" type="line" smooth="no"/>
      <point x="713" y="307" type="line" smooth="yes"/>
      <point x="712.999" y="222.333"/>
      <point x="682.832" y="150"/>
      <point x="622.5" y="90" type="curve" smooth="yes"/>
      <point x="562.166" y="30"/>
      <point x="489.833" y="0"/>
      <point x="405.5" y="0" type="curve" smooth="yes"/>
      <point x="321.167" y="0"/>
      <point x="248.833" y="30"/>
      <point x="188.5" y="90" type="curve" smooth="yes"/>
      <point x="128.167" y="150"/>
      <point x="98" y="222.333"/>
      <point x="98" y="307" type="curve" smooth="yes"/>
    </contour>
  </outline>
</glyph>
<glyph name="aacute" format="1">
  <advance width="733"/>
  <unicode hex="00e1"/>
  <outline>
    <component base="acute" xOffset="-28" yOffset="-88"/>
    <contour>
      <point x="358" y="1024" type="curve" smooth="yes"/>
      <point x="442.667" y="1024"/>
      <point x="515.167" y="994"/>
      <point x="575.5" y="934" type="curve" smooth="yes"/>
      <point x="635.833" y="874"/>
      <point x="666" y="801.667"/>
      <point x="666" y="717" type="curve" smooth="yes"/>
      <point x="666" y="0" type="line" smooth="no"/>
      <point x="459" y="0" type="line" smooth="no"/>
      <point x="460" y="182" type="line" smooth="yes"/>
      <point x="459.999" y="174.667"/>
      <point x="455.666" y="158.333"/>
      <point x="447" y="133" type="curve" smooth="yes"/>
      <point x="439.667" y="109.667"/>
      <point x="429.5" y="89.1667"/>
      <point x="416.5" y="71.5" type="curve" smooth="yes"/>
      <point x="403.5" y="53.8333"/>
      <point x="383" y="37.5"/>
      <point x="355" y="22.5" type="curve" smooth="yes"/>
      <point x="327" y="7.5"/>
      <point x="294" y="0"/>
      <point x="256" y="0" type="curve" smooth="yes"/>
      <point x="218" y="-2.38419e-07"/>
      <point x="185" y="7.16667"/>
      <point x="157" y="21.5" type="curve" smooth="yes"/>
      <point x="129" y="35.8333"/>
      <point x="108.5" y="52.8333"/>
      <point x="95.5" y="72.5" type="curve" smooth="yes"/>
      <point x="82.5" y="92.1667"/>
      <point x="72.1666" y="112"/>
      <point x="64.5" y="132" type="curve" smooth="yes"/>
      <point x="56.8333" y="152"/>
      <point x="53" y="169.333"/>
      <point x="53" y="184" type="curve" smooth="no"/>
      <point x="51" y="205" type="line" smooth="no"/>
      <point x="51" y="307" type="line" smooth="yes"/>
      <point x="51" y="391.667"/>
      <point x="81" y="464"/>
      <point x="141" y="524" type="curve" smooth="yes"/>
      <point x="201" y="584"/>
      <point x="273.333" y="614"/>
      <point x="358" y="614" type="curve" smooth="yes"/>
      <point x="386.667" y="614"/>
      <point x="411" y="624"/>
      <point x="431" y="644" type="curve" smooth="yes"/>
      <point x="451" y="664.001"/>
      <point x="461" y="688.334"/>
      <point x="461" y="717" type="curve" smooth="yes"/>
      <point x="461" y="745.668"/>
      <point x="451" y="769.835"/>
      <point x="431" y="789.5" type="curve" smooth="yes"/>
      <point x="411" y="809.169"/>
      <point x="386.667" y="819.002"/>
      <point x="358" y="819" type="curve" smooth="yes"/>
      <point x="329.333" y="819"/>
      <point x="305.166" y="809.167"/>
      <point x="285.5" y="789.5" type="curve" smooth="yes"/>
      <point x="265.833" y="769.833"/>
      <point x="256" y="745.667"/>
      <point x="256" y="717" type="curve" smooth="no"/>
      <point x="51" y="717" type="line" smooth="no"/>
      <point x="51" y="801.667"/>
      <point x="81" y="874"/>
      <point x="141" y="934" type="curve" smooth="yes"/>
      <point x="201" y="994"/>
      <point x="273.333" y="1024"/>
    </contour>
    <contour>
      <point x="358" y="205" type="curve" smooth="yes"/>
      <point x="388" y="205"/>
      <point x="411.667" y="213.5"/>
      <point x="429" y="230.5" type="curve" smooth="yes"/>
      <point x="446.333" y="247.5"/>
      <point x="456.333" y="264.333"/>
      <point x="459" y="281" type="curve" smooth="no"/>
      <point x="461" y="307" type="line" smooth="no"/>
      <point x="461" y="428" type="line" smooth="no"/>
      <point x="428.333" y="416"/>
      <point x="394" y="410"/>
      <point x="358" y="410" type="curve" smooth="yes"/>
      <point x="329.333" y="410"/>
      <point x="305.166" y="400"/>
      <point x="285.5" y="380" type="curve" smooth="yes"/>
      <point x="265.833" y="360"/>
      <point x="256" y="335.666"/>
      <point x="256" y="307" type="curve" smooth="yes"/>
      <point x="256" y="304.331"/>
      <point x="256.333" y="300.664"/>
      <point x="257" y="296" type="curve" smooth="yes"/>
      <point x="257.667" y="291.332"/>
      <point x="259.667" y="283.166"/>
      <point x="263" y="271.5" type="curve" smooth="yes"/>
      <point x="266.334" y="259.833"/>
      <point x="271.168" y="249.5"/>
      <point x="277.5" y="240.5" type="curve" smooth="yes"/>
      <point x="283.834" y="231.5"/>
      <point x="294.001" y="223.333"/>
      <point x="308" y="216" type="curve" smooth="yes"/>
      <point x="322" y="208.666"/>
      <point x="338.667" y="205"/>
    </contour>
  </outline>
</glyph>
<glyph name="ae" format="1">
  <advance width="1146"/>
  <unicode hex="00e6"/>
  <outline>
    <contour>
      <point x="770" y="1028" type="curve" smooth="yes"/>
      <point x="854.667" y="1028"/>
      <point x="926.667" y="998"/>
      <point x="986" y="938" type="curve" smooth="yes"/>
      <point x="1045.34" y="878"/>
      <point x="1075" y="805.667"/>
      <point x="1075" y="721" type="curve" smooth="yes"/>
      <point x="1075" y="618" type="line" smooth="no"/>
      <point x="1075" y="416" type="line" smooth="no"/>
      <point x="870" y="416" type="line" smooth="no"/>
      <point x="668" y="416" type="line" smooth="no"/>
      <point x="668" y="313" type="line" smooth="yes"/>
      <point x="668.004" y="284.333"/>
      <point x="677.837" y="260.167"/>
      <point x="697.5" y="240.5" type="curve" smooth="yes"/>
      <point x="717.168" y="220.833"/>
      <point x="741.001" y="211"/>
      <point x="769" y="211" type="curve" smooth="yes"/>
      <point x="797.001" y="211"/>
      <point x="820.834" y="220.833"/>
      <point x="840.5" y="240.5" type="curve" smooth="yes"/>
      <point x="860.172" y="260.167"/>
      <point x="870.005" y="284.333"/>
      <point x="870" y="313" type="curve" smooth="no"/>
      <point x="1075" y="313" type="line" smooth="no"/>
      <point x="1075" y="228.333"/>
      <point x="1045.33" y="156"/>
      <point x="986" y="96" type="curve" smooth="yes"/>
      <point x="926.667" y="36"/>
      <point x="854.667" y="6"/>
      <point x="770" y="6" type="curve" smooth="yes"/>
      <point x="685.333" y="6"/>
      <point x="613" y="36"/>
      <point x="553" y="96" type="curve" smooth="yes"/>
      <point x="493" y="156"/>
      <point x="463" y="228.333"/>
      <point x="463" y="313" type="curve" smooth="yes"/>
      <point x="463" y="721" type="line" smooth="yes"/>
      <point x="463" y="805.667"/>
      <point x="493" y="878"/>
      <point x="553" y="938" type="curve" smooth="yes"/>
      <point x="613" y="998"/>
      <point x="685.333" y="1028"/>
    </contour>
    <contour>
      <point x="672" y="618" type="line" smooth="no"/>
      <point x="874" y="618" type="line" smooth="no"/>
      <point x="874" y="721" type="line" smooth="yes"/>
      <point x="874" y="749.668"/>
      <point x="864.167" y="773.835"/>
      <point x="844.5" y="793.5" type="curve" smooth="yes"/>
      <point x="824.833" y="813.169"/>
      <point x="801" y="823.002"/>
      <point x="773" y="823" type="curve" smooth="yes"/>
      <point x="745" y="823"/>
      <point x="721.167" y="813.167"/>
      <point x="701.5" y="793.5" type="curve" smooth="yes"/>
      <point x="681.833" y="773.833"/>
      <point x="672" y="749.667"/>
      <point x="672" y="721" type="curve" smooth="yes"/>
    </contour>
    <contour>
      <point x="365" y="1028" type="curve" smooth="yes"/>
      <point x="449.667" y="1028"/>
      <point x="521.667" y="998"/>
      <point x="581" y="938" type="curve" smooth="yes"/>
      <point x="640.333" y="878"/>
      <point x="670" y="805.667"/>
      <point x="670" y="721" type="curve" smooth="yes"/>
      <point x="670" y="227" type="line" smooth="no"/>
      <point x="506" y="227" type="line" smooth="no"/>
      <point x="532" y="215" type="line" smooth="yes"/>
      <point x="524" y="219"/>
      <point x="512.333" y="210.667"/>
      <point x="497" y="190" type="curve" smooth="yes"/>
      <point x="489.667" y="180.666"/>
      <point x="482.5" y="164.333"/>
      <point x="475.5" y="141" type="curve" smooth="yes"/>
      <point x="468.5" y="117.667"/>
      <point x="458.5" y="97.1667"/>
      <point x="445.5" y="79.5" type="curve" smooth="yes"/>
      <point x="432.5" y="61.8333"/>
      <point x="412" y="45.5"/>
      <point x="384" y="30.5" type="curve" smooth="yes"/>
      <point x="356" y="15.5"/>
      <point x="322.833" y="8"/>
      <point x="284.5" y="8" type="curve" smooth="yes"/>
      <point x="246.167" y="8"/>
      <point x="209.333" y="14.8333"/>
      <point x="174" y="28.5" type="curve" smooth="yes"/>
      <point x="138.667" y="42.1667"/>
      <point x="114.5" y="59"/>
      <point x="101.5" y="79" type="curve" smooth="yes"/>
      <point x="88.5" y="99"/>
      <point x="78.1666" y="118.833"/>
      <point x="70.5" y="138.5" type="curve" smooth="yes"/>
      <point x="62.8333" y="158.167"/>
      <point x="59" y="175.333"/>
      <point x="59" y="190" type="curve" smooth="no"/>
      <point x="57" y="211" type="line" smooth="no"/>
      <point x="57" y="313" type="line" smooth="yes"/>
      <point x="57" y="397.667"/>
      <point x="87.1667" y="469.667"/>
      <point x="147.5" y="529" type="curve" smooth="yes"/>
      <point x="207.833" y="588.333"/>
      <point x="280.333" y="618"/>
      <point x="365" y="618" type="curve" smooth="yes"/>
      <point x="392.334" y="618.002"/>
      <point x="416.167" y="628.335"/>
      <point x="436.5" y="649" type="curve" smooth="yes"/>
      <point x="456.834" y="669.668"/>
      <point x="467" y="694.001"/>
      <point x="467" y="722" type="curve" smooth="yes"/>
      <point x="467" y="750.001"/>
      <point x="456.833" y="773.835"/>
      <point x="436.5" y="793.5" type="curve" smooth="yes"/>
      <point x="416.167" y="813.169"/>
      <point x="392" y="823.002"/>
      <point x="364" y="823" type="curve" smooth="yes"/>
      <point x="336" y="823"/>
      <point x="312" y="813.167"/>
      <point x="292" y="793.5" type="curve" smooth="yes"/>
      <point x="272" y="773.833"/>
      <point x="262" y="749.667"/>
      <point x="262" y="721" type="curve" smooth="no"/>
      <point x="57" y="721" type="line" smooth="no"/>
      <point x="57" y="805.667"/>
      <point x="87.1667" y="878"/>
      <point x="147.5" y="938" type="curve" smooth="yes"/>
      <point x="207.833" y="998"/>
      <point x="280.333" y="1028"/>
    </contour>
    <contour>
      <point x="358" y="211" type="curve" smooth="yes"/>
      <point x="415.333" y="211"/>
      <point x="449" y="239.667"/>
      <point x="459" y="297" type="curve" smooth="yes"/>
      <point x="460.339" y="303.667"/>
      <point x="461.005" y="309"/>
      <point x="461" y="313" type="curve" smooth="yes"/>
      <point x="461" y="432" type="line" smooth="no"/>
      <point x="427" y="421.333"/>
      <point x="392.667" y="416"/>
      <point x="358" y="416" type="curve" smooth="yes"/>
      <point x="329.333" y="415.999"/>
      <point x="305.166" y="405.666"/>
      <point x="285.5" y="385" type="curve" smooth="yes"/>
      <point x="265.833" y="364.333"/>
      <point x="256" y="340.333"/>
      <point x="256" y="313" type="curve" smooth="yes"/>
      <point x="256" y="302" type="line" smooth="yes"/>
      <point x="256" y="297.332"/>
      <point x="258" y="289.166"/>
      <point x="262" y="277.5" type="curve" smooth="yes"/>
      <point x="266.001" y="265.833"/>
      <point x="271.167" y="255.5"/>
      <point x="277.5" y="246.5" type="curve" smooth="yes"/>
      <point x="283.834" y="237.5"/>
      <point x="294.001" y="229.333"/>
      <point x="308" y="222" type="curve" smooth="yes"/>
      <point x="322" y="214.666"/>
      <point x="338.667" y="211"/>
    </contour>
  </outline>
</glyph>
<glyph name="ecircumflex" format="1">
  <advance width="749"/>
  <unicode hex="00ea"/>
  <outline>
    <component base="asciicircum" xOffset="20.0001" yOffset="-64"/>
    <contour>
      <point x="374" y="1024" type="curve" smooth="yes"/>
      <point x="458.667" y="1024"/>
      <point x="531" y="994"/>
      <point x="591" y="934" type="curve" smooth="yes"/>
      <point x="651" y="874"/>
      <point x="681" y="801.667"/>
      <point x="681" y="717" type="curve" smooth="yes"/>
      <point x="681" y="614" type="line" smooth="no"/>
      <point x="681" y="410" type="line" smooth="no"/>
      <point x="476" y="410" type="line" smooth="no"/>
      <point x="271" y="410" type="line" smooth="no"/>
      <point x="271" y="307" type="line" smooth="yes"/>
      <point x="271" y="278.333"/>
      <point x="281" y="254.167"/>
      <point x="301" y="234.5" type="curve" smooth="yes"/>
      <point x="321" y="214.833"/>
      <point x="345.333" y="205"/>
      <point x="374" y="205" type="curve" smooth="yes"/>
      <point x="402.667" y="205"/>
      <point x="426.833" y="214.833"/>
      <point x="446.5" y="234.5" type="curve" smooth="yes"/>
      <point x="466.167" y="254.167"/>
      <point x="476" y="278.333"/>
      <point x="476" y="307" type="curve" smooth="no"/>
      <point x="681" y="307" type="line" smooth="no"/>
      <point x="681" y="222.333"/>
      <point x="651" y="150"/>
      <point x="591" y="90" type="curve" smooth="yes"/>
      <point x="531" y="30"/>
      <point x="458.667" y="0"/>
      <point x="374" y="0" type="curve" smooth="yes"/>
      <point x="289.333" y="0"/>
      <point x="217" y="30"/>
      <point x="157" y="90" type="curve" smooth="yes"/>
      <point x="97" y="150"/>
      <point x="67" y="222.333"/>
      <point x="67" y="307" type="curve" smooth="yes"/>
      <point x="67" y="717" type="line" smooth="yes"/>
      <point x="67" y="801.667"/>
      <point x="97" y="874"/>
      <point x="157" y="934" type="curve" smooth="yes"/>
      <point x="217" y="994"/>
      <point x="289.333" y="1024"/>
    </contour>
    <contour>
      <point x="271" y="614" type="line" smooth="no"/>
      <point x="476" y="614" type="line" smooth="no"/>
      <point x="476" y="717" type="line" smooth="yes"/>
      <point x="475.999" y="745.668"/>
      <point x="466.166" y="769.835"/>
      <point x="446.5" y="789.5" type="curve" smooth="yes"/>
      <point x="426.833" y="809.169"/>
      <point x="402.666" y="819.002"/>
      <point x="374" y="819" type="curve" smooth="yes"/>
      <point x="345.333" y="819"/>
      <point x="321" y="809.167"/>
      <point x="301" y="789.5" type="curve" smooth="yes"/>
      <point x="281" y="769.833"/>
      <point x="271" y="745.667"/>
      <point x="271" y="717" type="curve" smooth="yes"/>
    </contour>
  </outline>
</glyph>
<glyph name="edieresis" format="1">
  <advance width="749"/>
  <unicode hex="00eb"/>
  <outline>
    <component base="uni0308" xOffset="-19"/>
    <contour>
      <point x="375" y="1024" type="curve" smooth="yes"/>
      <point x="459.667" y="1024"/>
      <point x="532" y="994"/>
      <point x="592" y="934" type="curve" smooth="yes"/>
      <point x="652" y="874"/>
      <point x="682" y="801.667"/>
      <point x="682" y="717" type="curve" smooth="yes"/>
      <point x="682" y="614" type="line" smooth="no"/>
      <point x="682" y="410" type="line" smooth="no"/>
      <point x="477" y="410" type="line" smooth="no"/>
      <point x="272" y="410" type="line" smooth="no"/>
      <point x="272" y="307" type="line" smooth="yes"/>
      <point x="272" y="278.333"/>
      <point x="282" y="254.167"/>
      <point x="302" y="234.5" type="curve" smooth="yes"/>
      <point x="322" y="214.833"/>
      <point x="346.333" y="205"/>
      <point x="375" y="205" type="curve" smooth="yes"/>
      <point x="403.667" y="205"/>
      <point x="427.833" y="214.833"/>
      <point x="447.5" y="234.5" type="curve" smooth="yes"/>
      <point x="467.167" y="254.167"/>
      <point x="477" y="278.333"/>
      <point x="477" y="307" type="curve" smooth="no"/>
      <point x="682" y="307" type="line" smooth="no"/>
      <point x="682" y="222.333"/>
      <point x="652" y="150"/>
      <point x="592" y="90" type="curve" smooth="yes"/>
      <point x="532" y="30"/>
      <point x="459.667" y="0"/>
      <point x="375" y="0" type="curve" smooth="yes"/>
      <point x="290.333" y="0"/>
      <point x="218" y="30"/>
      <point x="158" y="90" type="curve" smooth="yes"/>
      <point x="98" y="150"/>
      <point x="68" y="222.333"/>
      <point x="68" y="307" type="curve" smooth="yes"/>
      <point x="68" y="717" type="line" smooth="yes"/>
      <point x="68" y="801.667"/>
      <point x="98" y="874"/>
      <point x="158" y="934" type="curve" smooth="yes"/>
      <point x="218" y="994"/>
      <point x="290.333" y="1024"/>
    </contour>
    <contour>
      <point x="272" y="614" type="line" smooth="no"/>
      <point x="477" y="614" type="line" smooth="no"/>
      <point x="477" y="717" type="line" smooth="yes"/>
      <point x="476.999" y="745.668"/>
      <point x="467.166" y="769.835"/>
      <point x="447.5" y="789.5" type="curve" smooth="yes"/>
      <point x="427.833" y="809.169"/>
      <point x="403.666" y="819.002"/>
      <point x="375" y="819" type="curve" smooth="yes"/>
      <point x="346.333" y="819"/>
      <point x="322" y="809.167"/>
      <point x="302" y="789.5" type="curve" smooth="yes"/>
      <point x="282" y="769.833"/>
      <point x="272" y="745.667"/>
      <point x="272" y="717" type="curve" smooth="yes"/>
    </contour>
  </outline>
</glyph>
<glyph name="igrave" format="1">
  <advance width="391"/>
  <unicode hex="00ec"/>
  <outline>
    <component base="grave" xOffset="-213" yOffset="-18"/>
    <contour>
      <point x="101" y="1024" type="line" smooth="no"/>
      <point x="306" y="1024" type="line" smooth="no"/>
      <point x="306" y="0" type="line" smooth="no"/>
      <point x="101" y="0" type="line" smooth="no"/>
    </contour>
  </outline>
</glyph>
<glyph name="iacute" format="1">
  <advance width="368"/>
  <unicode hex="00ed"/>
  <outline>
    <component base="acute" xOffset="-200" yOffset="-16"/>
    <contour>
      <point x="86" y="1024" type="line" smooth="no"/>
      <point x="291" y="1024" type="line" smooth="no"/>
      <point x="291" y="0" type="line" smooth="no"/>
      <point x="86" y="0" type="line" smooth="no"/>
    </contour>
  </outline>
</glyph>
<glyph name="icircumflex" format="1">
  <advance width="401"/>
  <unicode hex="00ee"/>
  <outline>
    <component base="asciicircum" xOffset="-152"/>
    <contour>
      <point x="104" y="1024" type="line" smooth="no"/>
      <point x="309" y="1024" type="line" smooth="no"/>
      <point x="309" y="0" type="line" smooth="no"/>
      <point x="104" y="0" type="line" smooth="no"/>
    </contour>
  </outline>
</glyph>
<glyph name="idieresis" format="1">
  <advance width="443"/>
  <unicode hex="00ef"/>
  <outline>
    <component base="uni0308" xOffset="-172"/>
    <contour>
      <point x="110" y="1024" type="line" smooth="no"/>
      <point x="315" y="1024" type="line" smooth="no"/>
      <point x="315" y="0" type="line" smooth="no"/>
      <point x="110" y="0" type="line" smooth="no"/>
    </contour>
  </outline>
</glyph>
<glyph name="ocircumflex" format="1">
  <advance width="753"/>
  <unicode hex="00f4"/>
  <outline>
    <component base="asciicircum" xOffset="8" yOffset="-64"/>
    <contour>
      <point x="377" y="1020" type="curve" smooth="yes"/>
      <point x="461.667" y="1020"/>
      <point x="534" y="990.667"/>
      <point x="594" y="932" type="curve" smooth="yes"/>
      <point x="654" y="873.333"/>
      <point x="684.667" y="801.667"/>
      <point x="686" y="717" type="curve" smooth="no"/>
      <point x="686" y="305" type="line" smooth="yes"/>
      <point x="686" y="219"/>
      <point x="655.667" y="146"/>
      <point x="595" y="86" type="curve" smooth="yes"/>
      <point x="534.333" y="26"/>
      <point x="461.667" y="-4"/>
      <point x="377" y="-4" type="curve" smooth="yes"/>
      <point x="292.333" y="-4"/>
      <point x="220.333" y="25.3333"/>
      <point x="161" y="84" type="curve" smooth="yes"/>
      <point x="101.667" y="142.667"/>
      <point x="70.6667" y="213.667"/>
      <point x="68" y="297" type="curve" smooth="no"/>
      <point x="68" y="305" type="line" smooth="no"/>
      <point x="68" y="711" type="line" smooth="yes"/>
      <point x="68" y="797"/>
      <point x="98" y="870"/>
      <point x="158" y="930" type="curve" smooth="yes"/>
      <point x="218" y="990"/>
      <point x="291" y="1020"/>
    </contour>
    <contour>
      <point x="377" y="813" type="curve" smooth="yes"/>
      <point x="348.333" y="813"/>
      <point x="324" y="803.167"/>
      <point x="304" y="783.5" type="curve" smooth="yes"/>
      <point x="284" y="763.833"/>
      <point x="274" y="740.333"/>
      <point x="274" y="713" type="curve" smooth="yes"/>
      <point x="274" y="305" type="line" smooth="yes"/>
      <point x="274" y="276.333"/>
      <point x="284" y="252.167"/>
      <point x="304" y="232.5" type="curve" smooth="yes"/>
      <point x="324" y="212.833"/>
      <point x="348.333" y="203"/>
      <point x="377" y="203" type="curve" smooth="yes"/>
      <point x="404.334" y="203"/>
      <point x="428.167" y="212.5"/>
      <point x="448.5" y="231.5" type="curve" smooth="yes"/>
      <point x="468.834" y="250.5"/>
      <point x="479" y="273.667"/>
      <point x="479" y="301" type="curve" smooth="yes"/>
      <point x="479" y="711" type="line" smooth="yes"/>
      <point x="478.999" y="739.668"/>
      <point x="469.166" y="763.835"/>
      <point x="449.5" y="783.5" type="curve" smooth="yes"/>
      <point x="429.833" y="803.166"/>
      <point x="405.666" y="812.999"/>
    </contour>
  </outline>
</glyph>
<glyph name="odieresis" format="1">
  <advance width="770"/>
  <unicode hex="00f6"/>
  <outline>
    <component base="uni0308"/>
    <contour>
      <point x="393" y="1020" type="curve" smooth="yes"/>
      <point x="477.667" y="1020"/>
      <point x="550" y="990.667"/>
      <point x="610" y="932" type="curve" smooth="yes"/>
      <point x="670" y="873.333"/>
      <point x="700.667" y="801.667"/>
      <point x="702" y="717" type="curve" smooth="no"/>
      <point x="702" y="305" type="line" smooth="yes"/>
      <point x="702" y="219"/>
      <point x="671.667" y="146"/>
      <point x="611" y="86" type="curve" smooth="yes"/>
      <point x="550.333" y="26"/>
      <point x="477.667" y="-4"/>
      <point x="393" y="-4" type="curve" smooth="yes"/>
      <point x="308.333" y="-4"/>
      <point x="236.333" y="25.3333"/>
      <point x="177" y="84" type="curve" smooth="yes"/>
      <point x="117.667" y="142.667"/>
      <point x="86.6667" y="213.667"/>
      <point x="84" y="297" type="curve" smooth="no"/>
      <point x="84" y="305" type="line" smooth="no"/>
      <point x="84" y="711" type="line" smooth="yes"/>
      <point x="84" y="797"/>
      <point x="114" y="870"/>
      <point x="174" y="930" type="curve" smooth="yes"/>
      <point x="234" y="990"/>
      <point x="307" y="1020"/>
    </contour>
    <contour>
      <point x="393" y="813" type="curve" smooth="yes"/>
      <point x="364.333" y="813"/>
      <point x="340" y="803.167"/>
      <point x="320" y="783.5" type="curve" smooth="yes"/>
      <point x="300" y="763.833"/>
      <point x="290" y="740.333"/>
      <point x="290" y="713" type="curve" smooth="yes"/>
      <point x="290" y="305" type="line" smooth="yes"/>
      <point x="290" y="276.333"/>
      <point x="300" y="252.167"/>
      <point x="320" y="232.5" type="curve" smooth="yes"/>
      <point x="340" y="212.833"/>
      <point x="364.333" y="203"/>
      <point x="393" y="203" type="curve" smooth="yes"/>
      <point x="420.334" y="203"/>
      <point x="444.167" y="212.5"/>
      <point x="464.5" y="231.5" type="curve" smooth="yes"/>
      <point x="484.833" y="250.5"/>
      <point x="495" y="273.667"/>
      <point x="495" y="301" type="curve" smooth="yes"/>
      <point x="495" y="711" type="line" smooth="yes"/>
      <point x="495" y="739.668"/>
      <point x="485.167" y="763.835"/>
      <point x="465.5" y="783.5" type="curve" smooth="yes"/>
      <point x="445.833" y="803.166"/>
      <point x="421.666" y="812.999"/>
    </contour>
  </outline>
</glyph>
<glyph name="OE" format="1">
  <advance width="1210"/>
  <unicode hex="0152"/>
  <outline>
    <contour>
      <point x="1174" y="0" type="line" smooth="no"/>
      <point x="559" y="0" type="line" smooth="no"/>
      <point x="559" y="78" type="line" smooth="no"/>
      <point x="538.333" y="56"/>
      <point x="522.667" y="40.8333"/>
      <point x="512" y="32.5" type="curve" smooth="yes"/>
      <point x="501.333" y="24.1667"/>
      <point x="485" y="16.6667"/>
      <point x="463" y="10" type="curve" smooth="yes"/>
      <point x="441" y="3.33333"/>
      <point x="413.666" y="0"/>
      <point x="381" y="0" type="curve" smooth="yes"/>
      <point x="297.667" y="-9.53674e-07"/>
      <point x="229.667" y="29.6667"/>
      <point x="177" y="89" type="curve" smooth="yes"/>
      <point x="124.333" y="148.333"/>
      <point x="98" y="221"/>
      <point x="98" y="307" type="curve" smooth="yes"/>
      <point x="98" y="1126" type="line" smooth="yes"/>
      <point x="98" y="1212"/>
      <point x="124.333" y="1284.83"/>
      <point x="177" y="1344.5" type="curve" smooth="yes"/>
      <point x="229.667" y="1404.17"/>
      <point x="297.667" y="1434"/>
      <point x="381" y="1434" type="curve" smooth="yes"/>
      <point x="449" y="1434"/>
      <point x="508.333" y="1408"/>
      <point x="559" y="1356" type="curve" smooth="no"/>
      <point x="559" y="1434" type="line" smooth="no"/>
      <point x="1174" y="1434" type="line" smooth="no"/>
      <point x="1174" y="1229" type="line" smooth="no"/>
      <point x="764" y="1229" type="line" smooth="no"/>
      <point x="764" y="819" type="line" smooth="no"/>
      <point x="1071" y="819" type="line" smooth="no"/>
      <point x="1071" y="614" type="line" smooth="no"/>
      <point x="764" y="614" type="line" smooth="no"/>
      <point x="764" y="205" type="line" smooth="no"/>
      <point x="1174" y="205" type="line" smooth="no"/>
    </contour>
    <contour>
      <point x="405.5" y="1229" type="curve" smooth="yes"/>
      <point x="376.5" y="1229"/>
      <point x="352.166" y="1219"/>
      <point x="332.5" y="1199" type="curve" smooth="yes"/>
      <point x="312.833" y="1179"/>
      <point x="303" y="1154.67"/>
      <point x="303" y="1126" type="curve" smooth="yes"/>
      <point x="303" y="838" type="line" smooth="no"/>
      <point x="303" y="596" type="line" smooth="no"/>
      <point x="303" y="307" type="line" smooth="yes"/>
      <point x="303" y="278.333"/>
      <point x="312.833" y="254.167"/>
      <point x="332.5" y="234.5" type="curve" smooth="yes"/>
      <point x="352.167" y="214.833"/>
      <point x="376.5" y="205"/>
      <point x="405.5" y="205" type="curve" smooth="yes"/>
      <point x="434.5" y="205"/>
      <point x="458.833" y="214.833"/>
      <point x="478.5" y="234.5" type="curve" smooth="yes"/>
      <point x="498.167" y="254.167"/>
      <point x="508" y="278.333"/>
      <point x="508" y="307" type="curve" smooth="yes"/>
      <point x="508" y="596" type="line" smooth="no"/>
      <point x="508" y="838" type="line" smooth="no"/>
      <point x="508" y="1126" type="line" smooth="yes"/>
      <point x="508" y="1154.67"/>
      <point x="498.166" y="1179"/>
      <point x="478.5" y="1199" type="curve" smooth="yes"/>
      <point x="458.833" y="1219"/>
      <point x="434.5" y="1229"/>
    </contour>
  </outline>
</glyph>
<glyph name="oe" format="1">
  <advance width="1157"/>
  <unicode hex="0153"/>
  <outline>
    <contour>
      <point x="784" y="1028" type="curve" smooth="yes"/>
      <point x="868.667" y="1028"/>
      <point x="941.167" y="998"/>
      <point x="1001.5" y="938" type="curve" smooth="yes"/>
      <point x="1061.84" y="878"/>
      <point x="1092" y="805.667"/>
      <point x="1092" y="721" type="curve" smooth="yes"/>
      <point x="1092" y="618" type="line" smooth="no"/>
      <point x="1092" y="414" type="line" smooth="no"/>
      <point x="887" y="414" type="line" smooth="no"/>
      <point x="682" y="414" type="line" smooth="no"/>
      <point x="682" y="311" type="line" smooth="yes"/>
      <point x="682" y="303" type="line" smooth="yes"/>
      <point x="684.669" y="277"/>
      <point x="695.502" y="254.833"/>
      <point x="714.5" y="236.5" type="curve" smooth="yes"/>
      <point x="733.5" y="218.167"/>
      <point x="756.667" y="209"/>
      <point x="784" y="209" type="curve" smooth="yes"/>
      <point x="812.668" y="209"/>
      <point x="837.001" y="218.833"/>
      <point x="857" y="238.5" type="curve" smooth="yes"/>
      <point x="877" y="258.167"/>
      <point x="887" y="282.333"/>
      <point x="887" y="311" type="curve" smooth="no"/>
      <point x="1092" y="311" type="line" smooth="no"/>
      <point x="1092" y="226.333"/>
      <point x="1061.83" y="154"/>
      <point x="1001.5" y="94" type="curve" smooth="yes"/>
      <point x="941.167" y="34"/>
      <point x="868.667" y="4"/>
      <point x="784" y="4" type="curve" smooth="yes"/>
      <point x="706" y="4"/>
      <point x="638" y="30"/>
      <point x="580" y="82" type="curve" smooth="no"/>
      <point x="521.333" y="30"/>
      <point x="453" y="4"/>
      <point x="375" y="4" type="curve" smooth="yes"/>
      <point x="291.667" y="4"/>
      <point x="220" y="33"/>
      <point x="160" y="91" type="curve" smooth="yes"/>
      <point x="100" y="149"/>
      <point x="69.3333" y="219.667"/>
      <point x="68" y="303" type="curve" smooth="no"/>
      <point x="68" y="311" type="line" smooth="no"/>
      <point x="68" y="715" type="line" smooth="yes"/>
      <point x="68" y="801"/>
      <point x="98" y="874.667"/>
      <point x="158" y="936" type="curve" smooth="yes"/>
      <point x="218" y="997.333"/>
      <point x="290.333" y="1028"/>
      <point x="375" y="1028" type="curve" smooth="yes"/>
      <point x="447.667" y="1028"/>
      <point x="515.333" y="1001.33"/>
      <point x="578" y="948" type="curve" smooth="no"/>
      <point x="636" y="1001.33"/>
      <point x="704.667" y="1028"/>
    </contour>
    <contour>
      <point x="375" y="209" type="curve" smooth="yes"/>
      <point x="402.333" y="209"/>
      <point x="425.833" y="218.167"/>
      <point x="445.5" y="236.5" type="curve" smooth="yes"/>
      <point x="465.167" y="254.834"/>
      <point x="475.667" y="277.667"/>
      <point x="477" y="305" type="curve" smooth="yes"/>
      <point x="477" y="311" type="line" smooth="yes"/>
      <point x="477" y="721" type="line" smooth="no"/>
      <point x="477" y="723" type="line" smooth="yes"/>
      <point x="475.667" y="749"/>
      <point x="465.167" y="771.167"/>
      <point x="445.5" y="789.5" type="curve" smooth="yes"/>
      <point x="425.833" y="807.833"/>
      <point x="402.333" y="817"/>
      <point x="375" y="817" type="curve" smooth="yes"/>
      <point x="347.667" y="817"/>
      <point x="323.667" y="807.5"/>
      <point x="303" y="788.5" type="curve" smooth="yes"/>
      <point x="282.333" y="769.5"/>
      <point x="272" y="745.667"/>
      <point x="272" y="717" type="curve" smooth="yes"/>
      <point x="272" y="311" type="line" smooth="yes"/>
      <point x="272" y="282.333"/>
      <point x="282" y="258.167"/>
      <point x="302" y="238.5" type="curve" smooth="yes"/>
      <point x="322" y="218.833"/>
      <point x="346.333" y="209"/>
    </contour>
    <contour>
      <point x="887" y="618" type="line" smooth="no"/>
      <point x="887" y="721" type="line" smooth="yes"/>
      <point x="887" y="749.668"/>
      <point x="877" y="773.835"/>
      <point x="857" y="793.5" type="curve" smooth="yes"/>
      <point x="837" y="813.169"/>
      <point x="812.667" y="823.002"/>
      <point x="784" y="823" type="curve" smooth="yes"/>
      <point x="756.667" y="822.996"/>
      <point x="733.167" y="813.829"/>
      <point x="713.5" y="795.5" type="curve" smooth="yes"/>
      <point x="693.833" y="777.165"/>
      <point x="683.333" y="754.332"/>
      <point x="682" y="727" type="curve" smooth="yes"/>
      <point x="682" y="721" type="line" smooth="yes"/>
      <point x="682" y="618" type="line" smooth="no"/>
    </contour>
  </outline>
</glyph>
<glyph name="tildecomb" format="1">
  <advance width="0"/>
  <unicode hex="0303"/>
  <outline>
    <contour>
      <point x="183.346" y="-84.9668" type="curve" smooth="yes"/>
      <point x="161.65" y="-95.0098"/>
      <point x="136.042" y="-99.8701"/>
      <point x="106.436" y="-99.8701" type="curve" smooth="yes"/>
      <point x="98.7334" y="-99.8701"/>
      <point x="90.7607" y="-99.5273"/>
      <point x="82.5205" y="-98.8398" type="curve" smooth="yes"/>
      <point x="48.96" y="-96.0391"/>
      <point x="13.6299" y="-85.6904"/>
      <point x="-17.9697" y="-59.582" type="curve" smooth="yes"/>
      <point x="-24.6504" y="-54.0625"/>
      <point x="-32.4512" y="-50.8398"/>
      <point x="-40.6074" y="-50.8398" type="curve" smooth="yes"/>
      <point x="-45.4277" y="-50.8398"/>
      <point x="-50.8008" y="-51.916"/>
      <point x="-56.6406" y="-54.6641" type="curve" smooth="yes"/>
      <point x="-64.3564" y="-58.2949"/>
      <point x="-74.293" y="-65.4736"/>
      <point x="-76.8682" y="-80.0957" type="curve" smooth="no"/>
      <point x="-230.357" y="-80" type="line" smooth="no"/>
      <point x="-229.094" y="-46.7012"/>
      <point x="-219.505" y="-15.75"/>
      <point x="-201.426" y="13.3174" type="curve" smooth="yes"/>
      <point x="-182.044" y="44.4785"/>
      <point x="-155.818" y="68.0117"/>
      <point x="-121.832" y="83.7529" type="curve" smooth="yes"/>
      <point x="-95.2871" y="96.0479"/>
      <point x="-68.4629" y="101.79"/>
      <point x="-41.3076" y="101.79" type="curve" smooth="yes"/>
      <point x="-32.9121" y="101.79"/>
      <point x="-24.4766" y="101.218"/>
      <point x="-15.9951" y="100.068" type="curve" smooth="yes"/>
      <point x="20.0078" y="95.1904"/>
      <point x="51.6455" y="81.3672"/>
      <point x="79.4834" y="58.3662" type="curve" smooth="yes"/>
      <point x="86.1641" y="52.8467"/>
      <point x="93.9668" y="49.625"/>
      <point x="102.122" y="49.625" type="curve" smooth="yes"/>
      <point x="106.942" y="49.625"/>
      <point x="112.314" y="50.7021"/>
      <point x="118.154" y="53.4502" type="curve" smooth="yes"/>
      <point x="125.869" y="57.0801"/>
      <point x="135.809" y="64.2598"/>
      <point x="138.383" y="78.8809" type="curve" smooth="no"/>
      <point x="291.846" y="78.7852" type="line" smooth="no"/>
      <point x="290.364" y="45.6748"/>
      <point x="279.163" y="14.0264"/>
      <point x="257.841" y="-16.6592" type="curve" smooth="yes"/>
      <point x="234.708" y="-49.9502"/>
      <point x="209.905" y="-72.6719"/>
    </contour>
  </outline>
</glyph>
<glyph name="uni0308" format="1">
  <advance width="770"/>
  <unicode hex="0308"/>
  <outline>
    <contour>
      <point x="82" y="1432" type="line" smooth="no"/>
      <point x="284" y="1432" type="line" smooth="no"/>
      <point x="284" y="1229" type="line" smooth="no"/>
      <point x="82" y="1229" type="line" smooth="no"/>
    </contour>
    <contour>
      <point x="491" y="1432" type="line" smooth="no"/>
      <point x="694" y="1432" type="line" smooth="no"/>
      <point x="694" y="1229" type="line" smooth="no"/>
      <point x="491" y="1229" type="line" smooth="no"/>
    </contour>
  </outline>
</glyph>
<glyph name="uni031B" format="1">
  <advance width="0"/>
  <unicode hex="031b"/>
  <outline>
    <contour>
      <point x="-97.5996" y="1368.8" type="line" smooth="no"/>
      <point x="80" y="1370" type="line" smooth="no"/>
      <point x="80" y="1165" type="line" smooth="no"/>
      <point x="-97.5996" y="958.8" type="line" smooth="no"/>
    </contour>
  </outline>
</glyph>
<glyph name="dotbelowcomb" format="1">
  <advance width="0"/>
  <unicode hex="0323"/>
  <outline>
    <contour>
      <point x="-113" y="-113.8" type="line" smooth="no"/>
      <point x="92" y="-113.8" type="line" smooth="no"/>
      <point x="92" y="-318.8" type="line" smooth="no"/>
      <point x="-113" y="-318.8" type="line" smooth="no"/>
    </contour>
  </outline>
</glyph>
<glyph name="quoteleft" format="1">
  <advance width="376"/>
  <unicode hex="2018"/>
  <outline>
    <contour>
      <point x="272" y="1564" type="line" smooth="no"/>
      <point x="104" y="1563" type="line" smooth="no"/>
      <point x="104" y="1358" type="line" smooth="no"/>
      <point x="272" y="1154" type="line" smooth="no"/>
    </contour>
  </outline>
</glyph>
<glyph name="quoteright" format="1">
  <advance width="376"/>
  <unicode hex="2019"/>
  <outline>
    <contour>
      <point x="104" y="1562" type="line" smooth="no"/>
      <point x="272" y="1563" type="line" smooth="no"/>
      <point x="272" y="1358" type="line" smooth="no"/>
      <point x="104" y="1152" type="line" smooth="no"/>
    </contour>
  </outline>
</glyph>
